<svg width="208" height="104" viewBox="0 0 208 104" fill="none" xmlns="http://www.w3.org/2000/svg">
<path d="M109.292 14.9761C110.125 15.5937 111.837 17.3277 111.937 18.377C111.956 18.5816 111.904 19.8728 111.874 20.1295C111.788 20.9147 111.424 22.3137 111.133 23.0691C110.475 24.7844 109.013 26.0049 107.498 26.8979C108.525 28.7658 111.435 28.9519 112.685 30.8161C114.549 33.5956 113.746 36.6058 112.045 39.2179C111.148 40.5984 108.927 42.31 107.45 42.9872C103.803 44.6579 102.724 43.8728 99.0516 43.7016C96.5511 43.5826 94.1623 43.8356 91.7102 44.2561C91.5725 43.3593 92.086 42.4886 92.2572 41.737C92.7892 39.404 92.7967 37.8375 92.819 35.4226C92.8339 33.484 92.9344 31.2886 92.8227 29.3016C92.7297 27.6235 92.112 25.5212 92.0748 23.8989C92.0599 23.2589 92.3353 22.697 92.2758 22.0495C92.2088 21.2793 91.3679 18.0086 90.9995 17.3686C90.3706 16.2784 88.5102 15.7091 88.7409 14.1612C89.8274 13.5993 90.5976 14.4886 91.4609 14.6486C92.9716 14.9314 97.232 14.9128 98.6423 14.4849C98.8879 14.4105 99.0181 14.0868 99.2785 14.0049C102.527 13.0226 106.415 12.8402 109.292 14.9723V14.9761ZM104.48 25.4319C104.547 25.3723 105.519 24.0812 105.556 23.9993C105.697 23.6756 105.604 23.3258 105.705 23.0319C105.939 22.3658 106.252 22.2095 106.214 21.3165C106.185 20.6021 105.18 18.6077 104.588 18.2802C103.71 17.7928 100.67 17.1193 99.8255 17.6663C99.3716 17.9602 98.4376 20.3342 98.419 20.9519C98.4079 21.3277 98.6162 21.67 98.6013 22.0458C98.553 23.5454 98.4079 25.0821 98.5865 26.6002C100.067 26.1649 103.346 26.4626 104.48 25.4281V25.4319ZM107.468 38.4551C107.643 38.1463 107.725 35.7575 107.673 35.2663C107.599 34.5556 107.267 33.0412 107.096 32.3119C106.873 31.3556 104.897 29.964 103.982 29.6626C102.791 29.2682 101.411 29.4133 100.168 29.3909C99.7139 29.3835 99.2972 29.004 98.8469 29.3723C98.1883 29.9119 98.7799 33.6402 98.7799 34.6784C98.7799 36.6505 98.4265 38.5854 98.6683 40.55L99.0516 40.7249C100.317 40.4719 101.894 41.1379 103.055 41.0151C103.651 40.9519 105.876 40.2226 106.352 39.8654C106.746 39.5677 106.739 39.177 106.981 38.7937C107.107 38.5928 107.424 38.537 107.468 38.4589V38.4551Z" fill="#1A3E2F"/>
<path d="M134.43 17.9082C134.56 18.005 134.616 18.4254 134.657 18.6115L135.375 18.0757C135.39 18.1985 135.42 18.3622 135.528 18.4254C136.142 18.7901 138.322 19.7501 138.691 20.1557C141.128 22.8496 142.668 25.3352 143.018 29.1157C143.435 33.6068 142.966 36.6841 140.603 40.5947C138.367 44.2971 134.784 46.1241 130.616 47.378C115.312 47.6645 114.754 27.3929 124.997 19.832C126.162 18.9724 130.813 16.9371 132.134 17.1194C132.503 17.1715 132.633 17.5361 132.934 17.6366C133.295 17.7557 134.244 17.7743 134.426 17.9082H134.43ZM135.717 23.4971C135.509 23.1845 132.722 21.7408 132.283 21.6366C131.107 21.3501 129.641 22.3733 128.778 23.1473C126.512 25.1864 126.337 26.9464 125.5 29.618C125.109 30.8645 125.288 30.3659 125.184 31.7166C125.117 32.6171 124.752 33.5399 124.663 34.3585C124.581 35.0915 124.793 38.7082 124.997 39.311C125.131 39.7129 125.44 39.8766 125.511 40.1073C125.619 40.472 125.47 40.8738 125.645 41.2757C125.976 42.0422 128.484 43.352 129.351 43.3333C129.857 43.3222 131.468 42.6524 131.933 42.3622C134.553 40.7399 135.755 36.3864 136.343 33.5771C136.852 31.1361 137.265 28.5315 136.625 26.0273C136.558 25.7594 135.796 23.605 135.721 23.4934L135.717 23.4971Z" fill="#1A3E2F"/>
<path d="M205.742 85.7592C203.204 89.7368 201.34 91.4931 196.898 93.3276C196.756 93.3871 196.749 93.6736 196.63 93.6885C196.347 93.722 195.815 93.469 195.357 93.4764C194.758 93.4913 194.423 93.8076 193.876 93.8708C188.406 94.5369 183.584 91.1471 181.218 86.4401C180.622 85.2531 180.745 84.5387 180.436 83.7015C180.198 83.0466 178.907 81.5731 178.46 80.829C178.148 80.3043 177.924 79.3406 177.679 79.0057C177.459 78.7043 176.804 78.6894 177.054 77.9899C177.407 76.9964 180.704 78.8234 181.634 77.9192C186.55 75.4894 191.063 72.3266 195.755 69.5471C196.187 69.2903 196.741 69.2308 197.184 68.9294C198.524 68.0178 198.378 65.8336 198.855 64.4643C198.922 64.2745 199.156 63.6457 199.443 63.7573C200.124 64.0215 202.542 68.8029 203.108 69.7592C206.471 75.4522 209.928 79.1843 205.742 85.748V85.7592ZM200.231 85.4504C200.615 85.0597 202.948 81.2531 203.063 80.7545C203.353 79.5192 203.469 77.1564 203.063 75.9471C202.974 75.6792 201.995 74.2317 201.831 74.1945C199.956 74.1015 199.018 75.0094 197.545 75.7982C194.323 77.521 191.357 79.3294 188.258 81.1936C186.784 82.0792 185.165 82.775 183.748 83.761C183.61 84.1889 185.389 87.0689 185.872 87.3703C186.07 87.4931 187.658 88.1294 187.978 88.2373C191.591 89.4541 195.915 88.1443 198.925 86.0978C199.223 85.8931 200.135 85.5471 200.231 85.4504Z" fill="#1A3E2F"/>
<path d="M48.2668 50.3251C48.7505 50.9428 50.4956 52.6842 51.1133 53.1456C52.9998 54.5521 56.7617 55.7242 58.7337 54.0386C58.89 53.9047 59.0426 53.5624 59.251 53.3503C59.597 52.993 60.1663 52.967 60.077 52.3791C60.0435 52.1558 58.9756 50.1093 58.7635 49.7707C58.4286 49.2312 56.4975 46.9614 56.0435 46.6786C55.8537 46.5596 54.6482 46.1503 54.41 46.1279C53.5021 46.0461 51.6044 46.8014 51.3626 45.5661L58.2575 40.8405C59.0612 40.5465 59.6119 39.7279 60.5458 39.7875C60.6947 39.8135 60.8398 42.3884 60.9217 42.7791C61.3868 45.0042 63.3254 47.7205 64.7505 49.4991C65.3868 50.2954 66.2835 50.3921 66.0379 51.7689C65.9933 52.0107 65.2751 53.2833 65.0891 53.6144C64.7803 54.154 64.6389 54.2656 64.2668 55.021C63.5337 56.5056 60.2779 58.7717 58.7114 59.3149C58.3877 59.4265 57.5542 59.4786 57.5133 59.5233C57.4351 59.5977 57.5877 59.9326 57.3756 60.0591C56.9217 60.3233 55.05 60.2675 54.4286 60.234C48.8993 59.9437 42.2649 55.7317 40.5198 50.3512C39.9133 48.4758 39.0835 44.3865 39.5114 42.541C40.4603 38.4368 42.2947 34.8796 46.3356 33.1977C47.344 32.7772 49.543 32.5279 50.2351 32.0777C50.8789 31.6609 51.1356 30.6414 51.5412 30.0312C51.6491 29.8712 51.9542 29.834 52.0435 29.7075C52.3524 29.2684 52.2072 28.394 53.0258 28.2749L56.7133 37.4805C56.5793 38.2693 53.8407 36.9633 53.2863 36.8442C50.8417 36.3307 48.0733 36.4535 46.1682 38.2358C44.8584 39.46 44.8621 42.0312 45.1189 43.7093C45.4165 45.6777 47.024 48.7475 48.2593 50.3251H48.2668Z" fill="#1A3E2F"/>
<path d="M179.027 41.3431C179.968 42.4482 180.612 43.4268 181.784 44.4463C182.331 44.9226 182.9 45.3952 183.567 45.6705C183.667 47.5161 182.979 49.2836 182.67 51.0845C181.851 55.8733 181.051 60.6547 180.207 65.4398C180.642 65.864 182.51 63.9552 182.908 63.5942C185.085 61.6184 186.554 60.2008 188.266 57.7003C188.675 57.1012 189.271 57.1124 189.453 56.0147C189.583 55.2408 189.07 52.6659 189.803 52.4463C190.383 52.2752 191.987 54.4556 192.467 54.9468C193.114 55.6129 193.799 56.4129 194.402 57.0156C195.057 57.6705 197.397 58.8947 196.482 59.877C195.935 60.465 195.444 59.8994 194.804 59.8659C192.504 59.7505 192.017 60.1301 190.264 61.4659C188.504 62.8054 186.979 64.625 185.114 65.8901L174.726 75.6612C172.98 73.5254 174.424 70.0798 174.793 67.557C175.161 65.038 175.418 62.5003 175.767 59.9849C176.099 57.6073 176.809 55.2184 176.59 52.8036C176.385 52.5319 176.367 52.6994 176.162 52.7552C175.314 52.997 174.696 54.1468 174.082 54.7645C171.585 57.2649 166.688 61.198 166.826 64.9784C166.837 65.3245 167.306 66.6231 166.729 66.7459C166.208 66.8538 161.635 62.2138 160.5 62.0017C160.817 60.5059 162.253 60.8817 163.328 60.4091C164.009 60.1077 164.169 59.4752 164.456 59.1775C165.308 58.2919 166.941 57.0268 168.028 55.9663C170.514 53.5366 173.018 50.9877 175.451 48.331C176.426 47.2668 177.985 45.637 177.967 44.171C177.963 43.7915 177.516 43.211 177.446 42.6715C177.211 40.8891 177.416 39.4529 179.038 41.3543L179.027 41.3431Z" fill="#1A3E2F"/>
<path d="M159.718 28.6139C159.558 28.8893 158.315 29.1833 157.984 29.3842C155.447 30.9321 155.056 33.7712 153.969 36.3349C152.641 39.4716 151.216 42.3739 149.724 45.5107C149.273 46.4558 148.459 47.9814 148.924 49.0381C149.314 49.9274 150.446 50.8837 151.324 51.2856C152.946 52.0335 154.71 52.0967 156.347 51.3488C158.524 50.3553 159.726 46.5898 160.827 44.4912C162.036 42.1991 163.283 39.8623 164.447 37.5144C164.901 36.5991 165.772 36.253 165.508 34.8763C165.393 34.2735 164.645 32.9005 164.477 32.1898C164.362 31.6912 164.392 31.1926 164.399 30.6902C164.749 30.3256 168.615 33.2949 169.188 33.6149C170.245 34.2028 172.198 34.5526 172.756 35.4753C172.853 35.6316 172.972 35.7805 172.953 35.9814C171.863 36.3907 169.917 36.893 169.065 37.6744C168.712 37.9981 167 41.0084 166.594 41.7079C165.861 42.9619 165.266 44.3535 164.552 45.6149C162.167 49.8381 160.779 51.6428 159.793 56.6549C159.7 57.12 159.67 59.84 159.287 59.8586L153.657 57.0344C153.039 56.0186 155.115 55.8884 154.914 54.8465C154.096 55.04 153.244 54.9544 152.418 55.0474C151.912 55.1033 151.528 55.427 150.926 55.4121C149.906 55.386 147.636 54.7535 146.825 54.106C145.876 53.347 143.804 50.72 143.506 49.6186C142.888 47.3451 143.476 47.2335 143.997 45.3693C144.745 42.6939 145.504 41.3246 146.561 38.8279C147.7 36.134 149.94 32.4019 150.914 29.2056C151.718 26.5674 150.658 26.3926 150.319 24.4205C150.204 23.7395 150.181 23.3637 150.952 23.5944C151.897 23.8772 152.6 24.4688 153.43 24.8372C154.26 25.2056 154.933 25.4214 155.778 25.8344C156.54 26.2065 159.112 27.3079 159.562 27.8102C159.755 28.026 159.856 28.3684 159.711 28.6177L159.718 28.6139Z" fill="#1A3E2F"/>
<path d="M75.5337 18.9872C75.7123 19.151 74.7933 21.8784 74.7858 22.4365C74.7598 23.8914 77.104 26.3733 77.9523 27.631C79.9691 30.6263 81.997 33.5993 84.0882 36.55C84.8695 37.6551 85.5765 39.1956 86.5068 40.2114C87.0947 40.8551 87.8016 41.4654 88.4342 42.15C88.7951 42.5407 90.8789 44.3417 90.4137 44.8179C87.463 44.7658 84.5421 46.0012 81.8593 47.151C81.1561 47.2849 80.7691 46.7156 80.9328 46.057C80.9663 45.9193 81.29 45.9454 81.3123 45.8114C81.5356 44.4496 80.5161 41.3463 79.8277 40.1184C79.6677 39.8319 78.9756 39.7835 79.2621 38.8719C78.89 38.9054 78.4435 38.8012 78.09 38.8793C77.9523 38.9091 77.9486 39.1807 77.8184 39.2328C76.0621 39.9286 74.25 40.5761 72.3821 40.9184C72.6761 41.9937 72.4565 43.1249 72.5719 44.1668C72.6612 44.9705 72.9142 46.563 73.1635 47.2998C73.1858 47.363 74.0082 48.2114 74.064 48.2486C74.6482 48.6319 75.7235 48.5835 75.7309 49.6514L68.0137 52.5761L67.5523 51.9733C67.8947 49.5137 68.5347 47.2254 68.4789 44.7324C68.464 44.0365 67.9951 43.8579 68.6798 43.2477C67.9579 42.2133 68.4119 41.2533 68.4863 40.0738C68.5905 38.4477 68.5123 36.7435 68.4937 35.0617C68.4677 32.5575 68.5012 26.4365 67.1505 24.4979C66.6593 23.7947 65.8407 23.2142 64.9589 23.2514L64.9365 21.9007C65.5691 21.2682 66.6444 21.67 67.2398 21.5807C67.9133 21.4803 68.9923 21.2049 69.6658 21.0151C70.5402 20.7658 75.1654 18.6486 75.5412 18.991L75.5337 18.9872ZM73.1858 30.9947C72.8026 30.4663 72.6575 29.4617 71.8128 29.391C71.5933 31.27 72.01 33.0672 72.1402 34.8719C72.1812 35.4337 71.8165 37.5919 72.4528 37.871C73.0891 38.15 76.8435 37.1044 77.0109 36.3454C76.9886 35.9435 76.5347 35.9026 76.3002 35.5863C75.2621 34.1984 74.2798 32.4942 73.1821 30.9947H73.1858Z" fill="#1A3E2F"/>
<path d="M13.8713 67.7874L15.8992 70.2171L16.5355 70.5111C19.0992 73.9939 22.2583 76.9037 25.369 79.9362C27.9997 82.4999 30.5262 85.1827 33.4843 87.3967C33.0824 88.8106 32.3569 90.0981 32.1857 91.6199C31.3076 91.8283 30.3438 91.486 29.5327 91.4748C20.8034 91.3483 11.8285 89.7297 3.10292 90.1502C2.10199 90.1985 1.22385 90.8348 0.208033 90.2283C-0.353827 89.0562 0.67315 88.5018 1.15687 87.6497C2.70478 84.926 3.3671 81.8748 4.59501 79.0097L6.23222 82.8497C7.47501 83.8804 8.31594 84.3604 9.99408 84.4051C10.8313 84.4274 11.5904 84.4832 12.5876 84.5799C17.075 85.019 21.5476 85.6329 26.0685 85.5064C26.7011 84.8702 23.7764 82.9092 23.3708 82.526C20.7141 80.0181 18.0685 77.5548 15.4899 75.166C15.0099 74.7232 14.5634 73.9864 14.0462 73.6404C13.4322 73.2311 11.4452 72.6432 10.7345 72.6916C10.1727 72.7288 6.00896 75.0022 6.6378 73.0674C6.89827 72.2674 8.04803 70.9316 8.47222 70.0571C8.76245 69.4581 9.32431 68.1036 9.43966 67.4897C9.6071 66.5706 9.22757 62.2692 10.5448 62.273C10.7643 62.273 10.8834 62.3995 11.0136 62.552C11.449 63.0581 12.1485 65.1009 12.6434 65.9381C13.0043 66.552 13.6369 67.0171 13.8676 67.7836L13.8713 67.7874Z" fill="#1A3E2F"/>
<path d="M50.922 64.2562C49.8168 65.4544 48.321 66.593 47.175 67.8507C46.5313 68.5539 46.0848 69.2683 45.5973 69.9493C45.3927 70.2358 44.8829 70.5037 44.7601 71.0135L44.295 70.8795C43.8224 69.86 43.681 68.2711 43.1117 67.3595C42.5127 66.3995 39.8596 64.7623 38.721 65.3502C38.3415 65.5474 37.0355 67.3335 36.6708 67.7614C36.5406 67.9139 36.3285 67.9697 36.1759 68.0925C35.2234 69.9865 33.4299 70.2097 34.9294 72.4758C35.268 72.9855 37.3369 75.1697 37.7982 75.3818C38.282 75.6051 40.7862 74.6488 40.775 75.7502C40.775 75.9809 38.1889 78.82 37.8206 79.3111C37.4113 79.8581 36.9945 80.4944 36.5964 81.06C36.2503 81.5511 36.3508 82.3474 35.2978 82.3437C34.788 82.2023 34.5424 79.7837 34.3973 79.326C32.8717 74.4888 30.3192 70.2246 27.8187 65.8302C26.8475 64.1223 25.7275 61.793 24.6596 60.2562C24.5294 60.0702 23.5545 58.8832 23.4727 58.8423C22.7769 58.5 19.5992 59.2739 19.9601 57.9567C21.3629 56.2748 22.6652 54.4479 24.1201 52.8032C24.5294 52.3418 25.1062 51.9958 25.4522 51.6274C25.735 51.326 26.5871 49.7148 27.0931 49.8339C27.8113 50.4293 27.3313 51.1325 27.3796 51.7614C27.4392 52.5502 28.135 53.4804 28.7936 53.8934C30.7136 55.099 33.3666 55.94 35.4094 56.9409C38.7694 58.5855 42.1368 60.2302 45.4671 61.9418C45.8503 62.139 46.3862 62.7195 46.6541 62.7976C47.7517 63.1139 50.2522 62.5074 51.1675 62.9316C51.3313 63.0097 51.562 63.2553 51.5248 63.4562C51.2941 63.6944 51.1378 64.0181 50.9182 64.2562H50.922ZM34.9257 64.6209C35.1415 64.2042 35.6438 63.4786 35.1862 63.1139L28.4922 59.8655C28.4438 59.9139 28.6708 60.6618 28.7378 60.8255C29.2289 62.0497 30.148 63.6274 30.7731 64.7474L32.4029 67.8507C32.6894 67.9214 32.7006 67.806 32.8531 67.6535C33.4336 67.0804 34.5648 65.3204 34.9294 64.6172L34.9257 64.6209Z" fill="#1A3E2F"/>
</svg>
