<svg width="89" height="28" viewBox="0 0 89 28" fill="none" xmlns="http://www.w3.org/2000/svg">
<path d="M33.321 1.77806C33.0229 1.39165 32.6554 1.06422 32.2374 0.812545C31.7821 0.535018 31.2847 0.333269 30.7648 0.215177C30.1526 0.0707035 29.5252 0.000743456 28.8963 0.00680137H23.5547V9.33546H28.9032C29.5317 9.34017 30.1587 9.27259 30.7717 9.13402C31.2917 9.01593 31.789 8.81418 32.2443 8.53665C32.6592 8.28067 33.026 7.95388 33.3279 7.57114C33.633 7.1843 33.8681 6.74704 34.0225 6.27916C34.1745 5.76039 34.2494 5.2221 34.2448 4.68155C34.233 4.13863 34.1418 3.60037 33.9739 3.08393C33.8211 2.61111 33.586 2.16902 33.2793 1.77806M32.1609 5.79292C32.0719 6.11021 31.9311 6.41062 31.7442 6.68203C31.5594 6.94277 31.323 7.16267 31.0496 7.32802C30.7592 7.50897 30.443 7.64481 30.1118 7.7309C29.7164 7.82763 29.3103 7.8743 28.9032 7.86982H25.319V1.47243H28.9032C29.31 1.46568 29.7161 1.51002 30.1118 1.6044C30.4454 1.68683 30.7625 1.82542 31.0496 2.01423C31.3266 2.19532 31.5631 2.43183 31.7442 2.70885C31.9311 2.98026 32.0719 3.28067 32.1609 3.59795C32.3554 4.32611 32.3554 5.09256 32.1609 5.82071" />
<path d="M37.6826 5.91113H40.2249L43.4063 9.33557H45.6846L42.3713 5.77915C42.8709 5.75829 43.3626 5.64771 43.823 5.45268C44.297 5.2465 44.7003 4.90602 44.983 4.47327C45.2637 4.01163 45.4037 3.47816 45.3859 2.93817C45.3946 2.51988 45.319 2.10413 45.1636 1.71565C45.019 1.36008 44.7958 1.04187 44.5107 0.784875C44.2011 0.519906 43.8389 0.323428 43.4479 0.208344C42.98 0.0652109 42.4924 -0.00277553 42.0031 0.00691094H35.835V9.33557H37.6618L37.6826 5.91113ZM37.6826 1.41698H41.6906C41.9692 1.41297 42.2471 1.44567 42.5172 1.51422C42.7314 1.5677 42.9323 1.66463 43.1076 1.799C43.2653 1.92658 43.3853 2.09467 43.4549 2.28524C43.5381 2.50715 43.5782 2.74291 43.573 2.97986C43.5809 3.21699 43.5407 3.45328 43.4549 3.67447C43.3814 3.86098 43.2619 4.02585 43.1076 4.15374C42.9315 4.29393 42.728 4.39568 42.5102 4.45243C42.243 4.52353 41.967 4.55627 41.6906 4.54968H37.6826V1.41698Z" />
<path d="M49.0124 0.00687408H47.1855V9.33553H49.0124V0.00687408Z" />
<path d="M52.9712 2.03514L59.8201 9.33553H59.9382H60.223H61.6192V0.00687408H59.9382V7.34199L53.0754 0.00687408H52.9712H52.5267H51.2764V9.33553H52.9712V2.03514Z" />
<path d="M74.1575 9.33553L68.163 4.26485L73.7754 0.00687408H71.3165L65.5512 4.38293V0.00687408H63.7383V9.33553H65.5512V6.25144L66.739 5.34844L71.5249 9.33553H74.1575Z" />
<path d="M31.5702 16.9276C30.9319 16.7006 30.2661 16.5605 29.5905 16.5108L27.083 16.3233C26.6497 16.2847 26.2201 16.2127 25.7979 16.1079C25.5223 16.0484 25.2664 15.9192 25.0547 15.7328C24.9729 15.6459 24.9097 15.5431 24.8691 15.4308C24.8285 15.3185 24.8113 15.1991 24.8186 15.0799C24.8174 14.8961 24.8786 14.7174 24.9922 14.5728C25.1288 14.3948 25.3079 14.2539 25.5132 14.163C25.8089 14.0302 26.1225 13.9413 26.4439 13.8991C26.8859 13.8396 27.3316 13.8117 27.7776 13.8157C28.5638 13.772 29.3493 13.9148 30.0698 14.2325C30.3135 14.3535 30.5272 14.5273 30.6954 14.7411C30.8636 14.955 30.9821 15.2036 31.0423 15.4689L32.89 15.2188C32.7837 14.6331 32.5028 14.0931 32.0842 13.6698C31.6131 13.2189 31.0344 12.8961 30.4032 12.7321C29.5585 12.5072 28.6863 12.402 27.8123 12.4195C27.1132 12.4122 26.4151 12.475 25.7285 12.6071C25.1909 12.7104 24.6744 12.903 24.2003 13.1767C23.8257 13.3948 23.5089 13.6997 23.2765 14.0658C23.0851 14.4 22.9782 14.7758 22.9649 15.1607C22.9516 15.5456 23.0323 15.928 23.2001 16.2746C23.3648 16.581 23.6036 16.8413 23.8947 17.0318C24.2342 17.2618 24.6098 17.4333 25.0061 17.5388C25.4984 17.6813 26.0031 17.7767 26.5134 17.8236L28.9723 17.9903C29.4404 18.0397 29.9046 18.1209 30.3616 18.2334C30.6398 18.2978 30.8961 18.4344 31.1048 18.6294C31.1869 18.7243 31.2495 18.8346 31.2888 18.9538C31.3282 19.073 31.3435 19.1988 31.334 19.324C31.3353 19.5261 31.2666 19.7225 31.1395 19.8797C30.9879 20.0721 30.7859 20.2187 30.5561 20.3034C30.2326 20.43 29.894 20.514 29.5489 20.5535C29.0632 20.6198 28.5733 20.65 28.0832 20.6438C27.4815 20.6552 26.881 20.5851 26.2981 20.4354C25.8619 20.329 25.4587 20.1166 25.1242 19.8172C24.8429 19.5424 24.6516 19.1888 24.5754 18.803L22.7139 19.0809C22.7993 19.5522 22.9892 19.9984 23.2696 20.3868C23.5602 20.7708 23.9297 21.0881 24.3532 21.3175C24.852 21.5798 25.3886 21.7626 25.9438 21.8593C26.6313 21.9841 27.3289 22.0446 28.0277 22.0399C28.7844 22.0492 29.5403 21.9864 30.2852 21.8524C30.8429 21.7582 31.3807 21.5703 31.8758 21.2967C32.2678 21.0771 32.5976 20.7617 32.8344 20.3798C33.0539 20.0077 33.1669 19.5824 33.1609 19.1503C33.1851 18.6574 33.0486 18.1698 32.7719 17.7611C32.476 17.3732 32.0726 17.0809 31.6119 16.9206" />
<path d="M36.7797 17.8028H43.059V16.3997H36.7797V13.9616H43.7814V12.5516H36.7797H36.1407H34.9668V21.8802H36.1407H36.7797H43.8856V20.4701H36.7797V17.8028Z" />
<path d="M44.9551 14.0172H49.1922V21.8802H51.0191V14.0172H55.284V12.5516H44.9551V14.0172Z" />
<path d="M56.1387 14.0172H60.3758V21.8802H62.2026V14.0172H66.4676V12.5516H56.1387V14.0172Z" />
<path d="M69.7182 17.8028H75.9975V16.3997H69.7182V13.9616H76.7199V12.5516H69.7182H69.0792H67.9053V21.8802H69.0792H69.7182H76.8241V20.4701H69.7182V17.8028Z" />
<path d="M84.9372 18.3169C85.4366 18.2998 85.9286 18.1915 86.389 17.9974C86.8662 17.7929 87.2705 17.4491 87.549 17.011C87.8308 16.5521 87.9732 16.0212 87.9588 15.4829C87.9645 15.0619 87.8866 14.644 87.7296 14.2534C87.5849 13.8998 87.3616 13.5839 87.0766 13.3296C86.769 13.0617 86.4062 12.8649 86.0139 12.753C85.5461 12.6094 85.0583 12.5414 84.5691 12.5516H78.4287V21.8802H80.2555V18.4558H82.8187L86 21.8802H88.2783L84.9372 18.3169ZM80.2278 17.0527V13.9617H84.2357C84.5143 13.9577 84.7922 13.9903 85.0623 14.0589C85.2775 14.1096 85.479 14.2068 85.6527 14.3437C85.8125 14.4709 85.9349 14.6389 86.0069 14.8299C86.0876 15.0523 86.1254 15.288 86.1181 15.5245C86.128 15.7612 86.0902 15.9974 86.0069 16.2191C85.931 16.4061 85.8091 16.571 85.6527 16.6984C85.4758 16.8373 85.2726 16.9389 85.0553 16.9971C84.7882 17.0687 84.5121 17.1014 84.2357 17.0944L80.2278 17.0527Z" />
<path d="M7.93249 0.00695292H0V17.5251H4.3969L4.44553 21.8664H7.9186C10.8183 21.8664 13.5992 20.7145 15.6495 18.6642C17.6999 16.6138 18.8518 13.8329 18.8518 10.9332C18.8518 8.03355 17.6999 5.25264 15.6495 3.20226C13.5992 1.15189 10.8183 0 7.9186 0M5.64026 8.96746C5.64025 8.81391 5.70077 8.66654 5.8087 8.55731C5.91662 8.44809 6.06325 8.38582 6.21679 8.38399H7.71716L8.07836 5.38325L7.90471 4.21631H9.18279L8.9883 5.44577L9.38423 8.3701H10.7318C10.8847 8.3701 11.0313 8.43084 11.1395 8.53896C11.2476 8.64708 11.3083 8.79372 11.3083 8.94663V16.1706H5.7514L5.64026 8.96746ZM7.9186 20.5119H5.76529V17.5251H12.7114V8.96746C12.7097 8.45946 12.5085 7.97247 12.1512 7.61132C11.794 7.25016 11.3092 7.04372 10.8012 7.03644H10.6206L10.4053 5.46661L10.829 2.8757H6.39045L6.77248 5.41105L6.57105 7.04338H6.27236C6.01911 7.04338 5.76834 7.09338 5.53444 7.19051C5.30055 7.28763 5.08813 7.42998 4.90937 7.60939C4.73061 7.78879 4.58903 8.00172 4.49275 8.23596C4.39646 8.47021 4.34737 8.72115 4.34828 8.97441L4.42469 16.1776H1.32671V1.35449H7.90471C10.4014 1.42172 12.7733 2.46077 14.5154 4.25045C16.2575 6.04013 17.2324 8.43909 17.2324 10.9367C17.2324 13.4343 16.2575 15.8333 14.5154 17.6229C12.7733 19.4126 10.4014 20.4517 7.90471 20.5189" />
<path d="M60.2305 27.6594V24.7559H62.1059C63.1687 24.7559 63.6966 25.0059 63.6966 25.5061C63.6966 25.8047 63.4882 26.0131 63.0645 26.1243C63.5855 26.2493 63.8425 26.4785 63.8425 26.8189C63.8416 26.9533 63.8017 27.0845 63.7278 27.1967C63.6538 27.3089 63.5489 27.3972 63.4257 27.451C63.0375 27.6151 62.6171 27.6887 62.1962 27.6663L60.2305 27.6594ZM62.1129 25.9159C62.3042 25.9272 62.4957 25.8988 62.6755 25.8325C62.7291 25.8104 62.7749 25.7729 62.8071 25.7246C62.8393 25.6764 62.8563 25.6196 62.8561 25.5616C62.8556 25.5072 62.8379 25.4543 62.8054 25.4106C62.773 25.367 62.7275 25.3347 62.6755 25.3185C62.4799 25.2587 62.2755 25.2329 62.0712 25.2421H61.064V25.9367L62.1129 25.9159ZM62.1129 27.1731C62.348 27.1873 62.5837 27.1566 62.8075 27.0828C62.8684 27.0608 62.9207 27.02 62.9569 26.9663C62.9931 26.9126 63.0113 26.8488 63.0089 26.7841C63.0103 26.7197 62.9916 26.6563 62.9556 26.6029C62.9195 26.5494 62.8678 26.5084 62.8075 26.4855C62.5985 26.4099 62.3765 26.3768 62.1546 26.3882H61.064V27.1731H62.1129Z" />
<path d="M65.5026 27.6594V26.4994L63.8633 24.7559H64.8357L65.9471 25.9784L67.0724 24.7559H68.0101L66.3708 26.4994V27.6594H65.5026Z" />
<path d="M72.6771 25.5756C72.6029 25.4387 72.4822 25.3327 72.3368 25.2769C72.1312 25.2077 71.9145 25.177 71.6977 25.1867C71.4633 25.1783 71.2289 25.2064 71.0031 25.27C70.8364 25.3256 70.76 25.4089 70.76 25.5131C70.7587 25.5615 70.7719 25.6092 70.7979 25.65C70.8239 25.6908 70.8615 25.723 70.9059 25.7423C71.0794 25.8091 71.2621 25.849 71.4477 25.8604L72.2465 25.9577C72.6115 25.9794 72.9673 26.0814 73.2884 26.2564C73.3916 26.3143 73.4772 26.3991 73.5359 26.5019C73.5947 26.6047 73.6243 26.7215 73.6218 26.8398C73.6293 26.9922 73.5864 27.1427 73.4998 27.2683C73.4131 27.3938 73.2876 27.4873 73.1425 27.5344C72.7023 27.7138 72.2281 27.7944 71.7533 27.7706C71.3908 27.7775 71.029 27.7378 70.6766 27.6525C70.4331 27.5994 70.2093 27.4791 70.0307 27.3052C69.8759 27.1477 69.7802 26.9416 69.7598 26.7217H70.635C70.649 26.8116 70.6857 26.8964 70.7416 26.9681C70.7975 27.0398 70.8708 27.096 70.9545 27.1316C71.2069 27.2376 71.48 27.2851 71.7533 27.2705C71.9887 27.2776 72.2235 27.2447 72.4479 27.1732C72.6077 27.1107 72.691 27.0135 72.691 26.8885C72.6898 26.8379 72.6741 26.7888 72.6458 26.7469C72.6175 26.7051 72.5777 26.6722 72.5313 26.6523C72.3706 26.583 72.1989 26.543 72.0242 26.5342L71.3713 26.4647C70.9683 26.4449 70.5737 26.3433 70.2113 26.166C70.1007 26.1109 70.0081 26.0254 69.9441 25.9197C69.8802 25.8139 69.8476 25.6922 69.8501 25.5687C69.8497 25.4821 69.8689 25.3965 69.9062 25.3184C69.9435 25.2402 69.9979 25.1714 70.0654 25.1172C70.2486 24.9676 70.4656 24.8651 70.6975 24.8185C71.0208 24.7439 71.352 24.7089 71.6838 24.7143C72.1031 24.6963 72.5217 24.7649 72.9133 24.9157C73.0467 24.9725 73.1665 25.0569 73.2647 25.1635C73.3629 25.2701 73.4373 25.3964 73.4829 25.534L72.6771 25.5756Z" />
<path d="M75.212 24.7559H74.3438V27.6594H75.212V24.7559Z" />
<path d="M76.1641 27.6594V24.7559H77.0323V27.1176H79.394L79.2829 27.6594H76.1641Z" />
<path d="M80.0059 27.6594V24.7559H81.9022C82.9857 24.7559 83.5275 25.0754 83.5275 25.7144C83.5278 25.8572 83.4891 25.9973 83.4157 26.1197C83.3423 26.2421 83.2368 26.3421 83.1108 26.4091C82.7133 26.5922 82.2764 26.6734 81.8396 26.6452H80.8602V27.6316L80.0059 27.6594ZM81.8188 26.1659C82.0354 26.1809 82.2524 26.1428 82.4509 26.0548C82.5139 26.022 82.5663 25.9719 82.602 25.9104C82.6377 25.8489 82.6551 25.7785 82.6523 25.7075C82.6561 25.6381 82.6398 25.569 82.6053 25.5086C82.5708 25.4483 82.5196 25.3991 82.4578 25.3671C82.2581 25.2836 82.0417 25.248 81.8257 25.2629H80.8602V26.1659H81.8188Z" />
<path d="M88.5353 26.2076C88.5402 26.4993 88.4445 26.7838 88.2644 27.0134C88.0638 27.2601 87.796 27.4435 87.4934 27.5413C86.7189 27.7914 85.8853 27.7914 85.1109 27.5413C84.8081 27.4399 84.539 27.2572 84.3329 27.0134C84.1432 26.7829 84.0421 26.4922 84.0481 26.1937C84.0433 25.902 84.1389 25.6175 84.319 25.388C84.5236 25.1424 84.7932 24.9595 85.097 24.8601C85.8708 24.6056 86.7057 24.6056 87.4795 24.8601C87.7821 24.9582 88.0514 25.1386 88.2575 25.381C88.4442 25.6127 88.5426 25.9032 88.5353 26.2007M87.6323 26.2007C87.634 26.0656 87.6033 25.9321 87.5429 25.8112C87.4825 25.6904 87.3941 25.5858 87.285 25.506C86.9904 25.3148 86.6424 25.2223 86.2917 25.2421C85.9432 25.2223 85.5974 25.3149 85.3053 25.506C85.1954 25.5932 85.1066 25.7041 85.0456 25.8304C84.9846 25.9567 84.9529 26.0951 84.9529 26.2354C84.9529 26.3757 84.9846 26.5141 85.0456 26.6404C85.1066 26.7667 85.1954 26.8776 85.3053 26.9647C85.6065 27.1378 85.9478 27.2289 86.2952 27.2289C86.6425 27.2289 86.9838 27.1378 87.285 26.9647C87.399 26.8817 87.4905 26.7715 87.5512 26.6441C87.6118 26.5167 87.6397 26.3763 87.6323 26.2354" />
</svg>
