<svg width="121" height="69" viewBox="0 0 121 69" fill="none" xmlns="http://www.w3.org/2000/svg">
<path d="M26.0868 1.48262C28.4273 0.703012 31.6835 0.174302 34.3653 0.00388288C35.2181 -0.0511909 34.8666 0.441187 35.4508 0.428164C36.6058 0.405822 37.672 0.0416269 38.9858 0.130779C39.4283 0.164495 38.9343 0.874502 39.3952 0.896675C40.6928 0.995251 41.8102 0.866183 44.0926 1.4067C45.1297 1.74827 47.3148 2.21554 48.948 5.1922C50.367 8.30746 49.4003 10.3674 48.9913 11.4187C48.8293 11.7774 48.6567 12.1014 48.4745 12.4099C40.1787 22.2451 33.2261 25.7774 25.372 31.8632C22.908 33.6449 19.66 35.4125 17.236 37.451C17.0987 37.5661 16.966 37.6805 16.838 37.7942C16.5524 38.0492 17.089 38.3831 17.0604 38.4655C16.5912 39.7505 16.1878 38.564 15.4912 38.891C14.1226 39.533 12.7682 40.338 11.5534 41.2046C11.2592 41.4144 10.9554 41.6436 10.7074 41.8443C10.5777 41.9493 10.4583 42.0512 10.385 42.1191C10.345 42.1558 10.3178 42.1844 10.3346 42.1697C10.3456 42.1593 10.3714 42.135 10.4271 42.0708C10.468 42.0227 10.5245 41.9547 10.6051 41.8377C10.6879 41.6802 10.7702 41.7118 11.052 40.8846C11.1572 40.4844 11.3035 39.9008 11.0625 38.9663C10.7794 37.7307 9.5125 36.7446 8.80656 36.5635C8.62185 36.4999 8.4582 36.4601 8.31407 36.4328C8.22495 36.4162 8.16619 36.4077 8.09936 36.3992C7.97044 36.3831 7.8596 36.3763 7.7625 36.3737C7.56852 36.369 7.42797 36.3799 7.31606 36.3916C7.07418 36.4207 7.03556 36.4354 6.96731 36.4487C6.907 36.4622 6.86622 36.4729 6.83712 36.4807C6.74077 36.5073 6.77288 36.4959 6.8016 36.4801C6.8718 36.4451 6.99681 36.3825 7.13899 36.3076C7.39519 36.1708 7.71619 35.9901 7.98944 35.825C8.98697 35.2229 7.42113 34.6928 8.76843 34.7544C8.86361 34.7563 8.87158 35.4531 9.1976 35.3639C9.92443 35.1668 11.1437 34.4175 11.6822 34.1968C11.8631 34.1234 12.0214 34.0579 12.1634 33.9979C12.802 33.7311 13.0554 33.5972 13.8484 33.1965C15.1589 32.5406 16.8415 32.0285 18.1805 31.1897C18.4619 31.0109 17.7781 30.6381 18.2035 30.2998C18.6361 29.9578 19.93 29.3659 20.4204 29.2895C20.9148 29.2107 20.9597 29.7527 21.0871 29.8181C22.1518 30.3753 23.0122 28.4375 23.1858 28.3147C26.3886 26.0934 29.7121 25.3475 32.9945 23.8207C35.4904 22.6583 38.0752 21.2191 40.506 20.2103C43.4026 19.012 45.9951 18.322 48.8231 17.1704C49.1236 17.0493 48.4988 16.4803 48.8664 16.3309C50.6942 15.5897 52.548 14.9131 54.4423 14.3371C56.5919 13.6835 58.7823 13.166 61.0091 12.8258C61.429 12.7628 61.0844 13.5461 61.5123 13.5222C64.1445 13.3431 68.3113 13.719 69.2182 10.5961C70.9517 10.3469 73.0624 10.0736 74.691 10.3912C75.7413 10.596 74.8963 11.4658 76.057 10.9656C76.319 10.8543 75.8647 10.2864 76.2656 10.1671C77.9535 9.66572 79.8791 9.60391 81.5377 9.06211C81.8716 8.9508 81.71 8.40055 81.7952 8.28684C82.5178 7.36151 84.0671 8.54903 84.368 8.61298C86.5297 9.03529 88.0565 8.67297 89.85 8.39647C90.0147 8.37085 90.1793 8.34603 90.3441 8.32274C90.8093 8.25652 90.1428 7.58886 90.5897 7.49677C91.7327 7.26397 92.897 7.04158 94.0799 6.84672C94.6916 6.74759 95.2132 6.66414 96.0128 6.5689C96.1129 6.55813 96.2577 6.53998 96.4398 6.52567C96.5042 6.51998 96.5749 6.51454 96.6596 6.51031C96.7643 6.50645 96.7772 6.50206 97.0315 6.50587C97.1475 6.50943 97.2872 6.51655 97.4815 6.54455C97.5789 6.55889 97.6905 6.57876 97.8233 6.61123C97.9044 6.63214 97.9129 6.63167 98.0836 6.68533C98.2566 6.74193 98.4613 6.82096 98.7033 6.9541C99.169 7.20521 99.8845 7.76845 100.263 8.71354C100.451 9.15613 100.528 9.72804 100.518 10.0566C100.515 10.3725 100.47 10.6533 100.409 10.8915C100.139 11.8401 99.7923 12.1576 99.5922 12.4018C99.3144 12.6951 99.225 12.748 99.0997 12.8475C98.9778 12.9387 98.9208 12.9739 98.8685 13.0073C98.7664 13.0718 98.661 13.1316 98.6056 13.1601C98.4856 13.2227 98.3647 13.2807 98.283 13.3157C97.9215 13.4742 97.6227 13.5823 97.3341 13.6823C96.8082 13.8629 96.9607 13.0589 96.7027 13.1112C95.5501 13.3573 95.8943 14.5532 94.8183 14.8055C94.8139 14.8067 94.8094 14.8076 94.805 14.8082C94.594 14.8357 94.4543 14.3064 94.3924 14.271C93.3799 13.7147 93.5027 15.1769 93.3686 15.2798C91.6901 16.609 89.8445 15.9793 88.1332 17.1061C87.9302 17.2417 88.7427 17.6072 88.1505 17.9513C84.2002 20.2527 79.8525 22.3555 75.6079 24.0089C74.9469 24.2677 75.1388 23.5647 75.0689 23.5286C73.9514 22.9778 74.1879 24.3975 74.0109 24.5516C72.5975 25.7367 70.5699 25.5422 70.2711 27.5544C68.7998 28.2249 67.3498 28.9639 65.9456 29.7222C64.124 30.7113 62.2645 31.7693 60.6618 32.7902C60.4646 32.918 60.2854 33.0381 60.1383 33.1443C60.0732 33.1908 60.0072 33.2423 59.9957 33.2509C59.9922 33.2523 59.9919 33.2549 60.0452 33.1977C60.0715 33.1688 60.1091 33.1264 60.1608 33.0577C60.2318 32.9605 60.338 32.8164 60.4551 32.533C60.5907 32.1761 60.8973 31.2774 60.2228 30.1725C59.456 29.1558 59.0392 29.2186 58.7503 29.0926C58.2838 28.9844 58.217 29.0272 58.1609 29.0215C58.0585 29.0297 58.1308 29.029 58.1895 29.02C58.3366 28.9999 58.5417 28.9596 58.7654 28.9105C59.6595 28.7117 60.6599 28.4467 61.6622 28.203C63.4057 27.7758 65.1993 27.39 67.0443 27.1407C67.1423 27.1257 67.1894 27.8167 67.3829 27.7843C69.707 27.4065 68.9543 26.5593 70.0327 24.866C70.3074 24.4393 71.9126 25.5398 72.0455 25.6166C72.5355 25.897 72.4595 26.9673 72.6056 27.0054C73.7995 27.2918 72.6462 24.194 74.0341 23.77C74.0793 23.7621 74.0721 24.3984 74.2063 24.4208C74.6243 24.4924 74.9059 24.1568 75.3241 24.2521C76.2694 24.4818 76.984 25.9387 77.9738 24.7102C78.1063 24.5528 77.3696 22.8007 78.695 22.5654C79.2069 22.4641 81.5812 21.9362 82.4246 22.0208C83.257 22.0836 82.721 22.7253 82.7864 22.7461C83.8101 23.0694 84.2416 23.464 84.4015 23.8348C84.4926 24.1832 84.6473 24.648 84.3597 25.1662C84.3282 25.2003 84.2905 25.229 84.2482 25.251C83.1214 25.2585 85.7338 26.1242 85.7919 26.7493C85.8127 27.4308 84.4167 28.1099 84.0364 28.1771C83.6597 28.257 83.6281 27.7163 83.3517 27.8316C81.5101 28.5686 83.8109 29.3765 83.7026 30.131C83.3965 31.9317 81.153 31.1691 80.0777 31.8779C79.7846 32.0708 80.3127 32.2303 80.114 32.4711C79.324 33.4185 78.3379 33.4271 77.7289 34.7899C77.6206 35.0203 77.6751 36.6675 76.5621 36.4807C76.4005 36.4552 76.2323 35.8892 75.8015 36.1572C75.5948 36.2877 75.354 36.4657 75.1344 36.6674C75.0268 36.7656 74.9185 36.8799 74.8547 36.9593C74.8191 37.0031 74.7962 37.0421 74.7993 37.0291C74.8009 37.02 74.8144 36.9876 74.8215 36.9106C74.8328 36.8391 74.8156 36.5938 74.6676 36.4148C74.5134 36.2208 74.3357 36.1789 74.2989 36.1693C74.2529 36.1585 74.2406 36.1595 74.2475 36.1576C74.2623 36.1547 74.3129 36.1462 74.3798 36.1281C74.4854 36.0973 74.64 36.0379 74.7476 35.9763C75.2498 35.6961 74.3842 35.069 75.1236 35.1112C75.4554 35.123 75.0549 35.7895 75.6939 35.7592C76.3463 35.728 77.8398 35.0974 78.4069 34.8361C78.9735 34.5776 78.4058 34.1141 78.4357 34.0542C78.615 33.7078 79.5842 32.9505 79.6815 32.9087C80.761 32.4233 81.8576 31.9864 82.9769 31.5977C83.54 31.4038 84.1086 31.216 84.7487 31.0465C84.9124 31.0039 85.0816 30.9615 85.2929 30.9188C85.4136 30.8945 85.5029 30.8785 85.6719 30.8572C85.768 30.8455 85.8726 30.8359 86.0044 30.8354C86.0993 30.848 86.3679 30.791 86.9001 31.0299C87.0311 31.0939 87.1777 31.1848 87.3211 31.3148C87.4764 31.4508 87.667 31.6968 87.7662 31.9434C87.9806 32.4582 87.9002 32.918 87.8226 33.166C87.7314 33.4455 87.6287 33.596 87.5421 33.7204C87.4417 33.858 87.4049 33.8918 87.354 33.9475C87.3053 33.999 87.2575 34.0459 87.2094 34.0911C87.0132 34.2718 86.9132 34.3402 86.7444 34.4689C84.1968 36.1712 81.7809 37.4187 79.4994 39.2242C79.1737 39.4772 79.7831 39.8899 79.7374 39.9343C78.7398 40.9528 78.6395 38.8298 77.4879 38.8733C78.378 39.9449 77.7657 40.055 77.0308 40.7336C76.6791 41.0603 77.1938 41.3607 77.1884 41.4306C77.0665 42.4958 76.0656 41.901 75.8432 41.7911C75.0169 41.3929 75.1197 42.4532 74.5607 42.1918C74.005 41.9331 74.1706 40.8803 73.3964 41.4161C73.4558 41.975 74.7613 42.657 74.2873 43.2317C72.4977 45.3968 67.7893 47.4017 65.9887 48.5838C64.1826 49.7612 63.696 50.2496 62.616 50.8675C60.6913 52.0133 61.8749 52.2826 61.3432 53.3883C61.1478 53.8994 60.9566 53.5126 60.4538 53.2545C60.2559 53.1373 60.0326 53.0171 59.8273 52.89C59.5131 52.702 59.2379 52.5026 59.0567 52.4415C59.0354 52.4363 59.0151 52.4332 58.996 52.4325C58.7102 52.4349 58.6455 52.5371 58.6628 52.7877C58.6796 53.0275 58.9179 53.2209 59.0357 53.4033C59.1741 53.6039 59.0347 53.7196 58.9114 53.8178C58.8546 53.8673 58.8157 53.9198 58.8838 54.0003C58.9425 54.0791 59.1607 54.1816 59.3707 54.224C60.4201 54.4082 61.6874 53.1088 61.7815 52.549C61.919 51.349 60.9588 50.388 62.4873 50.4024C62.5785 50.4023 62.4724 51.0788 62.8123 51.0484C65.4864 50.7822 68.1881 49.8981 70.8902 49.4762C71.2619 49.419 71.1571 50.1799 71.3767 50.1538C73.6578 49.892 72.5322 49.0252 73.3433 47.4182C73.5811 49.1538 74.5395 49.9469 76.1613 49.5069C77.127 49.2553 76.7662 48.5723 77.3019 47.8986C77.4612 47.6941 78.2893 48.054 78.3431 47.6898C78.4751 47.095 78.3277 46.5139 78.3741 46.0976C78.4582 45.7027 78.5441 45.3576 79.9495 45.6149C80.0442 45.6343 80.1434 45.6584 80.2482 45.6895C80.4099 45.7448 79.792 46.2717 80.3258 46.4179C80.5064 46.475 80.8545 46.6132 81.0997 46.814C81.4116 47.0501 81.6588 47.4343 81.7506 47.7766C81.8501 48.1368 81.8353 48.3959 81.8192 48.605C81.7969 48.8283 81.7653 48.9775 81.7376 49.1146C81.6076 49.6718 81.5351 49.9897 81.4655 50.3505C81.3228 51.0479 81.1641 51.7573 80.4901 52.5479C79.4248 53.805 76.9111 54.9835 75.5298 55.9528C74.323 54.4354 73.3919 55.7635 73.7146 57.2126C72.8258 57.8491 71.9458 58.6311 71.0006 59.1271C70.6763 59.2977 70.5209 58.7079 70.4478 58.6876C69.3133 58.36 69.7334 59.6775 69.5783 59.8606C68.5635 61.0101 67.3386 61.6481 66.2617 62.433C65.5289 62.9679 64.8322 63.5926 64.3381 64.4845C64.2964 64.5634 65.0319 65.6958 63.9475 65.3161C63.8685 65.2948 64.0518 64.339 63.2082 64.9879C63.0998 65.0739 62.9865 65.1521 62.8682 65.2319C62.8156 65.2654 62.7465 65.3148 62.7032 65.3398C62.6525 65.3701 62.6057 65.4114 62.6326 65.3437C62.6372 65.3285 62.663 65.2817 62.6913 65.1982C62.7074 65.1454 62.7154 65.1348 62.7396 64.9982C62.7573 64.8803 62.7641 64.7067 62.7018 64.5048C62.6487 64.3126 62.4841 64.0724 62.3196 63.954C62.1543 63.8269 61.9993 63.7836 61.9449 63.7704C61.8001 63.7357 61.7153 63.7444 61.6855 63.7484C61.5713 63.7737 61.6666 63.7842 61.7276 63.782C61.8818 63.775 62.0695 63.7446 62.2761 63.6972C63.0859 63.5101 63.9534 63.1585 64.5478 62.5604C64.8292 62.2743 65.2674 60.8858 66.3198 61.3538C66.461 61.4182 66.5144 61.8174 66.7383 61.9534C66.8733 62.0338 66.9731 62.0513 67.0527 62.0322C67.3776 61.9581 67.3392 61.1827 68.1307 61.8602C69.1231 62.6854 70.5508 62.9982 71.676 61.621C71.7108 61.58 71.6219 60.4371 72.0799 60.2511C72.8238 59.9496 73.9465 59.694 74.7058 59.3466C75.0684 59.1803 74.5616 58.6725 74.6198 58.633C76.9166 57.1941 78.906 56.9585 81.6365 56.0224C82.1384 55.8516 83.1471 54.3996 84.3748 54.6434C85.7223 54.909 86.0074 58.3855 88.0418 56.6206C88.8597 55.9132 88.369 51.5603 90.9518 52.7827C92.2144 51.9827 93.5723 51.446 94.9104 50.9596C96.8524 50.2537 98.7896 49.6277 100.587 48.4041C100.727 48.3103 100.767 47.0364 101.14 46.9088C101.694 46.7241 102.178 47.1206 102.587 47.041C102.634 47.033 102.678 47.0259 102.728 47.0203C102.752 47.0179 102.78 47.0153 102.809 47.0157C102.836 47.0332 102.9 46.9584 102.979 47.1368C102.949 47.6586 102.58 47.9001 102.322 48.198C102.043 48.48 101.759 48.7471 101.473 49.0108C100.9 49.5359 100.319 50.0394 99.6675 50.4606C99.1465 50.8005 98.9944 50.2136 98.3716 50.6308C97.7474 51.0572 97.8117 51.9332 96.8198 52.301C96.3476 52.4785 95.5493 52.3042 94.7756 52.3468C94.4931 52.6054 94.3594 53.1979 94.4468 53.5708C94.4938 53.8268 94.6419 54.0924 94.8168 54.2686C94.9859 54.4395 95.1054 54.5153 95.2365 54.5892C95.5223 54.7306 95.6026 54.7591 95.7515 54.8094C95.9919 54.8929 96.1717 54.9349 96.306 54.9748C96.6198 55.0455 96.8518 55.0736 97.083 55.0522C96.7972 53.5843 97.4904 53.4445 98.5232 52.6608C98.7272 52.5078 98.3089 52.1033 98.396 52.0057C98.7199 51.607 99.2743 51.8626 99.5671 51.4407C99.6405 51.3382 99.4651 50.8586 99.5154 50.7475C99.9212 49.7915 101.445 50.4254 101.715 50.5327C102.736 50.9438 102.831 50.1887 103.504 50.2382C104.186 50.2836 103.479 50.9755 104.207 50.8747C105.715 50.665 107.433 49.8597 108.827 49.2991C109.378 49.0743 108.739 48.6032 108.812 48.5564C109.882 47.9187 111.319 48.0974 111.416 46.5816C113.026 48.7338 112.541 47.3546 112.977 46.4832C113.141 46.1821 113.399 45.9503 113.891 45.9517C114.044 45.953 114.802 47.4393 114.405 47.8564C114.232 48.0374 113.964 48.1038 113.663 48.1758L113.691 48.164C113.293 48.2685 112.863 48.3704 112.556 48.7351C112.428 48.8863 112.109 50.7109 112.019 50.8516C111.314 51.9494 110.208 49.7225 110.104 49.6186C108.934 48.5164 108.458 50.5337 108.198 50.7678C107.032 51.831 105.737 51.9893 104.723 52.8113C104.059 53.3456 104.59 54.8836 103.971 55.0779C101.872 55.7297 100.459 53.8661 99.0505 56.4242C98.6595 56.9706 99.9428 58.5196 97.3118 57.7388C97.2444 57.7273 97.1052 57.6553 96.7013 57.582C96.5211 57.5394 96.2562 57.506 95.8312 57.4327C95.5867 57.3904 95.2584 57.3531 94.7081 57.174C94.3601 57.0596 93.9188 56.8837 93.4176 56.5123C92.8637 56.1331 92.1121 55.2118 91.898 54.2691C91.6265 53.1103 92.042 51.2689 92.9199 50.4652C93.3824 50.2969 93.7978 50.0314 93.8193 49.5024C93.8247 49.3619 93.4814 48.9742 93.5517 48.8555C94.0327 48.0703 94.7343 48.0391 95.3208 47.3462C95.9075 46.6543 96.5888 45.8137 97.418 45.4459C97.9202 45.2222 98.984 45.6445 99.2918 45.7057C99.7333 45.8002 99.8991 45.5198 99.8876 45.4014C99.8813 45.3466 99.8255 45.3296 99.7283 45.5002C99.6438 45.6661 99.4567 46.0748 99.5569 46.8224C99.6035 47.1443 99.7158 47.3939 99.8306 47.5353C99.9114 48.3338 100.581 49.2124 100.929 49.4292C101.326 49.7341 101.685 49.8499 101.851 49.8878C102.169 49.9523 102.313 49.921 102.405 49.8917C102.578 49.8235 102.547 49.7254 102.444 49.6151C102.39 49.5587 102.311 49.4963 102.208 49.4182C102.156 49.3791 102.099 49.3359 102.036 49.2868C101.96 49.2329 101.843 49.1552 101.736 49.0651C101.508 48.8713 101.317 48.6677 101.114 48.281C100.938 47.9243 100.913 47.5885 100.936 47.3954C101.021 47.3693 101.108 47.3579 101.194 47.3627C101.233 47.4709 101.286 47.6271 101.398 47.8169C101.506 48.0054 101.706 48.2222 101.878 48.3273C102.296 48.5902 102.533 48.5457 102.694 48.5265C102.946 48.4526 102.957 48.339 102.951 48.2607C102.92 48.097 102.729 47.9976 102.474 47.9681C102.867 49.2551 103.254 50.5825 103.661 51.8735C101.537 52.6243 98.8434 53.3357 96.488 54.4246C96.4684 54.4337 96.4526 54.4445 96.44 54.4567C96.2678 54.629 96.7674 55.103 96.481 55.257C95.1707 55.9564 93.7779 56.008 92.4528 56.8195C91.4276 57.4505 90.5426 58.6815 89.4807 59.3654C88.1568 58.27 86.6773 59.5015 85.3898 59.9225C84.9393 60.0704 84.7998 59.6826 84.4388 59.6969C83.0808 59.7604 84.1767 60.7604 83.9473 61.0973C82.9607 62.5388 81.5874 59.7807 80.0145 60.5675C79.9308 60.6082 79.5617 62.5709 79.4608 62.728C78.8247 63.7426 79.0773 62.2739 78.4584 62.418C77.3292 62.6804 76.4483 62.6452 75.4243 63.6296C75.1288 63.9177 74.687 65.2356 73.6792 64.8194C73.5451 64.7658 73.3745 64.248 73.2877 64.252C71.749 64.3594 72.4061 65.9323 71.8839 66.7972C71.3591 67.6632 69.7058 67.1111 69.3331 66.9055C69.2714 66.8718 69.219 66.8401 69.1749 66.8103C68.9344 66.6559 68.9316 66.5513 69.0267 66.4766C69.1844 66.3487 69.658 66.3132 69.6589 66.2563C69.6488 65.4172 69.1875 65.5229 68.6853 65.708C68.5115 65.7728 68.3341 65.8457 68.1661 65.8968C67.3961 64.4105 66.5242 64.9055 67.4539 66.1212C67.5509 66.2561 68.0114 65.8819 68.1661 65.8968C68.2529 67.6509 67.3277 68.294 65.5597 67.3828C64.705 66.956 64.9998 65.9617 63.3149 66.9382C62.8916 67.162 62.7941 67.5228 62.6115 67.9197C62.4923 68.1169 62.4753 68.3274 61.9463 68.5252C61.8797 68.5484 61.8039 68.5703 61.7142 68.5891C61.5876 68.6078 61.4249 68.6214 61.2196 68.6149C61.0131 68.6071 60.7577 68.5823 60.4221 68.4886C60.0802 68.3967 59.2565 68.0666 58.6196 67.307C57.1739 65.6406 57.8409 63.5203 57.9262 63.333C58.0208 63.0578 58.1207 62.8459 58.2142 62.6677C58.2804 62.5361 58.3377 62.4323 58.3979 62.3314C58.5359 62.1048 58.6194 61.9801 58.6936 61.8672C58.7696 61.7536 58.8462 61.6488 58.8955 61.5765C59.0093 61.4163 59.1145 61.2823 59.2073 61.1695C59.405 60.9334 59.5841 60.7541 59.7675 60.5936C60.1364 60.2715 60.5475 60.0092 60.9418 59.7887C61.758 59.3268 62.5924 58.9663 63.2149 58.4501C63.2699 58.4044 63.3235 58.3572 63.3754 58.3081C63.8104 57.8987 62.966 57.751 63.2541 57.451C64.0075 56.6615 65.0392 56.4714 65.739 55.6318C65.8025 55.5547 65.2132 55.1754 65.4735 54.9657C67.4117 53.3849 69.3843 52.3957 71.3606 50.7953C72.3203 50.0219 73.7203 48.3488 74.5683 47.6265C75.0528 47.2218 75.6294 46.8147 75.9781 46.6121C76.0592 46.5705 76.1258 46.5401 76.1441 46.5823C76.1625 46.6386 76.1239 46.7138 76.0042 47.197C75.9544 47.4368 75.8489 47.8678 75.912 48.565C75.9625 49.3223 76.392 50.4085 77.0974 51.0794C77.8264 51.7724 78.3121 51.9056 78.7093 52.0315C79.0115 52.1097 79.2165 52.1204 79.3493 52.1193C79.7294 52.0782 79.4214 52.0209 79.2315 52.0409C78.9951 52.0573 78.7202 52.1174 78.4728 52.2125C77.4625 52.6002 77.8243 53.2017 77.4926 53.7517C76.8375 54.8244 74.6904 53.8523 74.3697 53.7008C74.3641 53.6932 75.3301 53.234 74.6915 53.0758C74.1679 52.4989 74.3791 53.6947 74.3697 53.7008C74.1813 53.5927 72.0769 54.1065 71.7015 54.3627C71.4985 54.5009 71.8166 55.0546 71.7075 55.1153C69.0755 56.5419 66.4223 57.6544 62.95 58.2244C62.8827 58.2274 62.8167 57.5249 62.6635 57.5395C61.9205 57.5939 61.2685 57.7839 60.291 57.9841C60.0043 58.0323 59.8118 58.082 59.338 58.1035C58.8923 58.1031 58.4719 58.1795 57.348 57.8232C57.0786 57.7291 56.8099 57.6199 56.4677 57.428C56.0575 57.1935 55.6079 56.8635 55.1899 56.4119C54.3194 55.5033 53.8055 54.1356 53.7499 53.0733C53.7106 52.5334 53.7523 52.0522 53.8236 51.6447C53.87 51.3583 53.9314 51.1035 53.9983 50.8744C54.133 50.4163 54.2863 50.0583 54.4339 49.7513C54.7292 49.0829 55.0355 48.5988 55.1945 48.2915C55.2911 48.12 55.3886 47.9558 55.4896 47.795C55.5704 47.6551 55.6483 47.5236 55.7334 47.39C56.8999 45.5856 57.9277 45.0621 59.3794 45.4424C60.1986 44.618 61.8056 44.0987 62.7322 43.8299C63.6502 43.5667 62.9682 42.3847 63.0183 42.3156C64.5589 40.1692 66.1768 40.0019 68.3465 38.666C69.3798 38.0326 71.2503 36.5289 72.2443 35.6797C73.0286 35.0062 73.7212 34.9242 74.3881 34.2287C74.4795 34.1342 74.0332 33.7046 74.0527 33.6633C74.5207 32.4736 74.9275 33.9852 75.255 34.0833C76.4462 34.4393 77.1423 34.5882 77.9879 33.4669C78.1972 33.1996 77.7254 30.941 78.1121 30.5234C78.5981 29.9965 78.8388 30.7595 79.3271 30.1947C79.3652 30.1495 79.096 29.7633 79.4795 29.5196C80.2045 29.0596 81.1534 28.462 81.4866 28.2664C81.5061 28.2572 81.5081 28.2618 81.4868 28.2888C81.4685 28.3141 81.4188 28.3625 81.2708 28.5318C81.2346 28.5737 81.1932 28.6227 81.1455 28.6816C81.0906 28.7506 81.07 28.7736 80.943 28.9453C80.7328 29.2543 80.3982 29.6721 80.0482 30.7272C79.7916 31.4668 79.3768 33.6078 80.5439 35.7017C81.8907 37.9216 83.1433 38.2806 84.063 38.659C84.9554 38.9609 85.6427 38.9787 85.8847 38.9872C86.1336 38.9931 86.3254 38.9834 86.4831 38.971C87.1289 38.9069 87.1694 38.8616 87.2896 38.8352C87.3871 38.8064 87.395 38.7979 87.3984 38.7929C87.3918 38.786 87.3187 38.8017 87.2196 38.8306C86.8186 38.9469 86.2315 39.1741 85.6858 39.4187C85.4122 39.5395 86.0534 40.0799 85.6713 40.2627C83.8258 41.1427 81.6691 42.0892 79.3246 42.6299C78.7425 42.7589 78.9029 42.1361 78.7266 42.0372C77.7063 41.429 76.8601 43.1405 76.4317 43.26C76.2875 43.3097 76.0904 43.3682 75.8967 43.4182C75.7978 43.4437 75.6941 43.4684 75.584 43.492C75.4546 43.5188 75.297 43.5469 75.1324 43.5703C74.7769 43.6116 74.4979 43.673 73.6336 43.6241C73.4318 43.6095 73.2093 43.5853 72.96 43.543C72.8353 43.5218 72.704 43.496 72.5653 43.464C72.4959 43.4481 72.4247 43.4305 72.3516 43.4112C72.2598 43.3869 72.1394 43.3522 72.0271 43.3161C71.1353 43.0325 69.8255 42.4029 68.7581 41.0526C67.0853 39.0489 67.2462 36.2521 67.3922 35.7007C67.5397 34.7849 67.854 34.0788 67.9701 33.8217C68.2761 33.1596 68.5444 32.7711 68.7058 32.5283C68.8901 32.2584 69.0521 32.0483 69.1759 31.8918C69.3034 31.7307 69.4489 31.5597 69.5464 31.4483C69.9977 30.936 70.3525 30.5981 70.7064 30.2762C71.4103 29.6416 72.061 29.1493 72.7053 28.6556C73.9861 27.6774 75.2263 26.7301 76.2509 25.3992C76.3845 25.2303 76.4058 23.1842 77.6765 23.6669C77.7565 23.7053 79.1213 24.1406 78.7144 23.2604C78.679 23.2159 78.0402 22.9501 78.3388 22.6965C78.4356 22.6223 78.48 22.4604 78.3456 22.619C78.2813 22.7122 78.1509 22.8553 77.9373 23.5057C77.8419 24.0262 77.0502 25.814 78.6854 28.6483C79.1658 29.4048 79.7763 29.9883 80.3264 30.3713C80.819 30.7116 81.24 30.8986 81.599 31.0227C82.2745 31.2417 82.618 31.2144 82.8512 31.1673C83.1585 31.1016 83.3764 30.7157 83.2877 30.4959C83.2176 30.2754 82.9289 30.2347 82.6789 30.7919C82.6395 30.8622 82.0011 33.3349 81.1699 31.9003C81.0332 31.665 80.7375 29.9907 79.8863 31.1003C79.7252 31.3157 80.189 31.583 79.7132 31.9514C78.9974 32.5154 77.7633 32.3983 76.9395 33.4335C76.7948 33.6158 76.3654 34.9446 75.4834 34.3109C75.3445 34.2118 75.3624 33.6154 75.0116 33.6598C73.3446 33.8687 71.7931 34.777 70.0372 34.9523C69.4191 35.0144 69.42 34.0536 68.7394 34.024C68.0535 33.9963 66.7574 34.1838 66.2428 34.794C65.7279 35.4043 66.8905 36.5481 65.9571 36.9798C65.5308 37.1752 65.0963 37.3571 64.6639 37.5231C63.6762 37.8974 62.7157 38.2031 61.4787 38.4969C61.1755 38.5673 60.8382 38.6419 60.4086 38.7202C60.2103 38.7554 59.9466 38.8011 59.633 38.8415C59.2649 38.8797 58.9542 38.952 57.9341 38.927C57.6245 38.9137 57.2568 38.8861 56.774 38.7959C56.193 38.6723 55.1619 38.4819 53.8005 37.5324C52.8879 36.895 51.8388 35.7533 51.275 34.3299C50.6835 32.813 50.6883 31.7035 50.7934 30.707C51.135 28.6249 51.5627 28.266 51.8515 27.7021C52.997 26.0394 53.2052 26.1213 53.5722 25.7566C54.1365 25.3031 54.4734 25.1007 54.7848 24.9066C57.0922 23.56 58.7658 22.8986 60.5826 21.9245C61.1136 21.6457 60.5404 21.4683 61.1021 21.0618C61.1509 21.0262 61.209 20.9887 61.2784 20.949C64.3832 19.1657 69.5253 15.8205 72.7499 15.3406C75.3331 14.955 72.929 17.0121 74.7519 16.4405C75.6302 16.1634 75.6956 14.2137 75.8641 14.0632C77.494 12.5786 79.1555 12.5405 80.7458 11.4367C81.0765 11.2074 80.41 10.7865 80.6945 10.5984C81.6589 9.95266 82.8741 9.65566 83.8285 9.08989C84.2493 8.83823 83.9315 8.41505 84.3544 8.2383C85.3661 7.80875 86.3157 7.55941 87.4952 7.4972C87.6023 7.49173 87.3231 8.36987 88.051 8.01817C88.8304 7.64074 89.8439 7.36611 90.76 6.89617C91.2388 6.65061 91.6574 6.37429 92.0442 5.992C92.3623 5.66271 91.879 4.57081 93.0419 4.90468C93.1621 4.9399 93.3378 5.30109 93.5196 5.46072C93.6112 5.54012 93.6969 5.57315 93.7812 5.48706C93.8196 5.44597 93.848 5.38008 93.8601 5.28357C93.8441 5.20521 93.9157 5.02402 93.5816 5.0513C93.5486 5.05761 93.4971 5.06863 93.3978 5.11032C93.3306 5.144 93.2292 5.20076 93.0781 5.30591C93.0017 5.3595 92.9109 5.42671 92.797 5.52172C92.7399 5.56934 92.677 5.62411 92.6066 5.68947C92.5641 5.72691 92.393 5.89304 92.204 6.11843C91.8593 6.58995 91.155 7.26504 90.8345 9.26977C90.6578 9.97494 90.8914 12.3567 91.9369 13.6523C92.9366 15.032 94.0558 15.5698 94.7508 15.8529C94.9269 15.9226 95.1098 15.9832 95.2318 16.0201C95.3018 16.0419 95.3687 16.0615 95.4329 16.0793C95.5613 16.1148 95.6789 16.1431 95.7871 16.1667C96.0037 16.2137 96.1837 16.2423 96.3389 16.263C96.6483 16.3035 96.8614 16.3145 97.0287 16.3223C97.4374 16.3524 97.6022 16.3625 97.6607 16.3992C97.9056 16.5317 97.6394 16.7735 97.4198 16.9785C96.9438 17.3927 96.2061 17.6977 95.6295 17.2617C95.3231 17.0336 94.4464 16.0082 93.9251 16.2888C93.8522 16.3317 94.2795 16.907 93.8123 17.054C92.9665 17.3148 92.0766 17.492 91.1784 17.6569C90.3633 17.8068 89.5681 17.944 88.7958 18.1368C88.3694 18.2449 89.0984 18.8237 88.4563 18.9639C86.6932 19.3484 84.5399 19.429 82.8653 19.4365C82.2505 19.4374 82.5977 18.8381 82.5463 18.7844C81.6999 17.9129 81.4634 19.2709 81.2354 19.3792C79.841 20.0329 78.6575 19.5844 77.3567 19.9582C76.9954 20.0605 77.3567 20.6366 77.2924 20.7035C76.6354 21.364 77.0095 20.1626 76.5137 20.1191C75.1218 19.9951 73.6459 20.3159 72.3272 20.6625C71.8434 20.7909 72.5372 21.3917 72.1023 21.499C69.5416 22.147 66.8788 22.7111 64.2917 23.0085C63.8063 23.0629 63.9493 22.4433 63.818 22.3471C62.8961 21.6743 62.2475 23.1328 62.055 23.3118C61.1868 24.1233 60.6434 23.7743 59.773 24.1473C59.1943 24.3968 58.6151 24.6367 58.0011 24.8814C54.0936 26.4354 49.4609 27.9873 45.8164 29.3501C40.3364 31.4067 35.944 32.8663 30.9171 35.4524C30.5967 35.6171 31.2488 36.1273 30.976 36.2783C27.4607 38.1874 23.8131 39.6992 20.3118 41.7337C20.0234 41.8997 20.7696 42.3099 20.3205 42.596C19.4654 43.1454 18.3374 43.6971 17.308 44.021C17.22 44.0493 17.1334 44.0757 17.0486 44.0998C16.5118 44.2533 16.8866 43.3809 16.3559 43.5442C15.1163 43.9237 13.8748 44.5057 12.6556 45.2303C12.128 45.5423 13.2824 45.7838 12.5532 46.1461C12.3146 46.2643 12.0565 46.3902 11.7869 46.5163C11.474 46.6596 11.2162 46.786 10.6243 47.0107C10.5423 47.0412 10.455 47.0726 10.3595 47.1052C10.2623 47.1381 10.1714 47.1691 9.98475 47.2246C9.81249 47.2752 9.61323 47.3297 9.35358 47.3858C9.18105 47.4168 8.58915 47.5712 7.58034 47.5651C7.31905 47.5617 7.01829 47.546 6.66118 47.4992C6.46847 47.4721 5.50565 47.3543 4.43043 46.8515C3.35391 46.3684 1.96534 45.3385 1.08503 43.8412C0.646071 43.1176 0.334553 42.2729 0.186646 41.5974C0.0631838 41.0512 0.0100026 40.5368 7.10487e-05 40.074C-0.00704908 38.2078 0.463058 37.2437 0.753082 36.5854C0.934842 36.212 0.991892 36.1258 1.06957 35.9894C1.14411 35.8624 1.21438 35.7505 1.2807 35.6494C1.54219 35.2523 1.76071 34.9879 1.90802 34.8137C2.02205 34.6797 2.12186 34.5698 2.21315 34.4724C2.87015 33.7924 3.06099 33.6601 3.34101 33.4111C4.31961 32.5816 5.0034 32.064 5.78097 31.4762C7.29262 30.3434 8.78233 29.311 10.3673 28.3373C11.4172 27.6947 12.4992 27.0884 13.6313 26.525C13.9343 26.3758 15.0697 27.3549 15.4644 26.7019C15.2611 26.3453 14.9692 25.9661 14.7247 25.6057C20.2178 21.1266 26.0772 17.2362 31.3312 12.7944C31.5527 12.6056 30.6653 12.3488 31.0882 11.9827C33.4315 9.9521 35.8533 7.39026 37.4486 6.46828C37.5377 6.44913 38.361 6.94302 38.5616 6.99292C38.5981 7.00947 38.6026 7.01781 38.5469 7.05835C38.533 7.06853 38.4932 7.10383 38.4167 7.25102C38.3513 7.3865 38.2016 7.68109 38.1509 8.35095C38.0841 8.9839 38.2972 10.1351 38.7813 10.9347C39.2543 11.7486 39.7075 12.1383 39.8897 12.3625C39.9404 12.4249 39.71 12.4725 39.6056 12.6028C39.4907 12.7186 39.5914 13.0334 40.1397 13.3217C40.8439 13.6638 41.0642 13.657 41.1221 13.6803C41.1796 13.6919 41.0792 13.6798 40.9285 13.6761C40.6163 13.6657 40.0981 13.6747 39.534 13.7001C38.4056 13.7492 37.0655 13.8445 35.7369 13.9079C35.304 13.9285 35.621 13.1729 35.3082 13.1827C33.084 13.261 30.7846 14.3347 28.5076 14.2529C26.9782 14.1981 27.2263 12.9295 26.1869 11.9944C26.0399 11.8626 25.1395 12.0579 24.9322 11.4165C24.4083 9.80414 24.3985 7.89954 23.789 6.19356C23.6581 5.82595 22.5588 6.52798 23.0441 5.44191C23.0787 5.3687 23.8741 4.85175 24.0142 4.48957C24.1115 4.23902 23.6778 3.6415 23.9166 3.29268C24.1554 2.94416 24.6288 3.41807 25.0606 2.97191C25.4909 2.52225 25.082 1.82033 26.0868 1.48262ZM66.8703 42.6717C67.9174 42.7409 66.6589 40.7022 66.2497 41.6819C66.2316 41.7316 66.8173 42.6694 66.8703 42.6717ZM98.1788 51.6584C96.7822 51.1106 96.7266 52.8281 97.7465 53.2737C98.7533 53.7246 98.605 51.8236 98.1788 51.6584ZM98.1692 48.9491C99.6847 48.8929 97.9047 45.9976 97.169 47.3593C97.125 47.4384 98.0799 48.9537 98.1692 48.9491ZM29.6568 10.8155C29.637 10.7874 28.9931 10.9088 28.9841 10.9435C28.8216 11.7634 30.1097 11.5197 29.6568 10.8155ZM102.092 52.2616C101.558 51.9804 100.7 52.8803 101.357 53.2379C101.894 53.5238 102.763 52.6102 102.092 52.2616ZM79.2647 31.0386C79.2984 31.0564 79.6701 30.7596 79.5265 30.6177C79.0641 30.1614 78.7026 30.7399 79.2647 31.0386ZM119.449 45.3536C116.797 46.0817 114.249 44.0099 117.269 43.3181C117.81 43.1994 116.422 44.5413 117.168 44.5593C118.529 44.5919 118.764 42.6777 120.27 43.1413C120.554 43.2267 119.616 45.317 119.445 45.3588C119.446 45.3571 119.448 45.3553 119.449 45.3536ZM68.8948 44.7654C68.9257 44.7824 69.4856 44.4323 69.4815 44.3972C69.3452 43.5682 68.2141 44.275 68.8948 44.7654ZM65.582 28.3206C65.5219 28.2699 64.0588 28.6929 64.0336 28.7663C63.6722 30.1969 66.6364 29.3442 65.582 28.3206ZM75.4763 55.9297C75.3979 56.9821 74.7669 57.6038 73.7178 57.2113C74.3136 56.803 74.8844 56.3536 75.4763 55.9297Z" fill="#EC7444"/>
</svg>
