<svg width="20" height="20" viewBox="0 0 20 20" fill="none" xmlns="http://www.w3.org/2000/svg">
<g clip-path="url(#clip0_4268_995)">
<path fill-rule="evenodd" clip-rule="evenodd" d="M0.909091 0C0.407018 0 0 0.407018 0 0.909091C0 1.41116 0.407018 1.81818 0.909091 1.81818H1.93882L3.42249 12.2039C3.61444 13.5475 4.76513 14.5455 6.12235 14.5455H14.9052C16.1835 14.5455 17.2902 13.6576 17.5675 12.4098L17.8572 11.1063C17.9661 10.6162 17.657 10.1305 17.1669 10.0216C16.6768 9.91273 16.1912 10.2217 16.0823 10.7119L15.7925 12.0154C15.7002 12.4314 15.3313 12.7273 14.9052 12.7273H6.12235C5.66995 12.7273 5.28638 12.3946 5.2224 11.9467L4.29495 5.45455H10C10.5021 5.45455 10.9091 5.04753 10.9091 4.54545C10.9091 4.04338 10.5021 3.63636 10 3.63636H4.0352L3.62723 0.780527C3.56325 0.332664 3.17968 0 2.72727 0H0.909091ZM16.3636 0.909091C16.8657 0.909091 17.2727 1.31611 17.2727 1.81818V3.63636H19.0909C19.593 3.63636 20 4.04338 20 4.54545C20 5.04753 19.593 5.45455 19.0909 5.45455H17.2727V7.27269C17.2727 7.77476 16.8657 8.18178 16.3636 8.18178C15.8615 8.18178 15.4545 7.77476 15.4545 7.27269V5.45455H13.6364C13.1343 5.45455 12.7273 5.04753 12.7273 4.54545C12.7273 4.04338 13.1343 3.63636 13.6364 3.63636H15.4545V1.81818C15.4545 1.31611 15.8615 0.909091 16.3636 0.909091ZM8.18182 18.1818C8.18182 19.186 7.36779 20 6.36364 20C5.35948 20 4.54545 19.186 4.54545 18.1818C4.54545 17.1776 5.35948 16.3636 6.36364 16.3636C7.36779 16.3636 8.18182 17.1776 8.18182 18.1818ZM14.5455 20C15.5496 20 16.3636 19.186 16.3636 18.1818C16.3636 17.1776 15.5496 16.3636 14.5455 16.3636C13.5413 16.3636 12.7273 17.1776 12.7273 18.1818C12.7273 19.186 13.5413 20 14.5455 20Z" fill="#252525"/>
</g>
<defs>
<clipPath id="clip0_4268_995">
<rect width="20" height="20" fill="white"/>
</clipPath>
</defs>
</svg>
