<svg width="128" height="56" viewBox="0 0 128 56" fill="none" xmlns="http://www.w3.org/2000/svg">
<path d="M112.584 39.4916H116.843V32.601L122.786 39.4916H127.998L121.079 31.5502L126.989 24.6644H122.247L116.843 31.0109V17L112.584 17.5582V39.4916ZM102.762 24.2846C98.0338 24.2846 94.7505 27.4648 94.7505 32.0757C94.7505 36.6866 98.0338 39.8668 102.762 39.8668C107.49 39.8668 110.774 36.6866 110.774 32.0757C110.774 27.4648 107.49 24.2846 102.762 24.2846ZM102.762 36.2363C100.571 36.2363 99.0706 34.5429 99.0706 32.0757C99.0706 29.6084 100.571 27.9151 102.762 27.9151C104.952 27.9151 106.454 29.6084 106.454 32.0757C106.454 34.5429 104.952 36.2363 102.762 36.2363ZM85.4536 24.2846C80.7255 24.2846 77.442 27.4648 77.442 32.0757C77.442 36.6866 80.7255 39.8668 85.4536 39.8668C90.1818 39.8668 93.4651 36.6866 93.4651 32.0757C93.4651 27.4648 90.1818 24.2846 85.4536 24.2846ZM85.4536 36.2363C83.2631 36.2363 81.7621 34.5429 81.7621 32.0757C81.7621 29.6084 83.2631 27.9151 85.4536 27.9151C87.6442 27.9151 89.1451 29.6084 89.1451 32.0757C89.1451 34.5429 87.6442 36.2363 85.4536 36.2363ZM69.1537 24.2846C67.1837 24.2846 65.5513 25.0585 64.5288 26.475V17L60.265 17.5535V39.4868H64.0457L64.1206 37.1979C65.1292 38.9052 66.935 39.8668 69.1537 39.8668C73.1971 39.8668 76.1568 36.5833 76.1568 32.0757C76.1568 27.5679 73.2111 24.2846 69.1537 24.2846ZM68.1453 36.2363C65.9547 36.2363 64.4538 34.5429 64.4538 32.0757C64.4538 29.6084 65.9547 27.9151 68.1453 27.9151C70.3357 27.9151 71.8368 29.6084 71.8368 32.0757C71.8368 34.5429 70.3357 36.2363 68.1453 36.2363ZM51.728 36.4286C49.4672 36.4286 47.8443 35.3778 47.2908 33.5673H57.7836C57.8869 33.0139 57.9573 32.3571 57.9573 31.9162C57.9573 27.1458 55.2882 24.2846 50.804 24.2846C46.2776 24.2846 43.1442 27.4648 43.1442 32.0757C43.1442 36.7475 46.4277 39.8668 51.3013 39.8668C53.8247 39.8668 56.278 39.0225 57.8118 37.62L56.278 34.9183C54.7911 35.9454 53.3322 36.4286 51.728 36.4286ZM50.7758 27.5961C52.746 27.5961 54.003 28.7922 54.003 30.645V30.6592H47.2017C47.6098 28.6938 48.8808 27.5961 50.7758 27.5961ZM36.4742 39.8714C38.6788 39.8714 40.8365 39.0271 42.3562 37.5636L40.691 34.7634C39.5089 35.6828 38.1675 36.1799 36.8964 36.1799C34.5323 36.1799 32.9562 34.5288 32.9562 32.0803C32.9562 29.6318 34.5323 27.9807 36.8964 27.9807C38.0643 27.9807 39.3354 28.4028 40.3674 29.1487L42.0607 26.2874C40.691 25.0491 38.5709 24.2892 36.4695 24.2892C31.8446 24.2892 28.5752 27.5164 28.5752 32.0803C28.5798 36.6302 31.8492 39.8714 36.4742 39.8714ZM22.9324 24.6644L22.8574 26.9723C21.8489 25.2508 20.043 24.2892 17.8244 24.2892C13.7669 24.2892 10.8212 27.5727 10.8212 32.0803C10.8212 36.588 13.7857 39.8714 17.8244 39.8714C20.043 39.8714 21.8535 38.9098 22.8574 37.2025L22.9324 39.4914H26.713V24.6644H22.9324ZM18.8328 36.2363C16.6423 36.2363 15.1413 34.5429 15.1413 32.0757C15.1413 29.6084 16.6423 27.9151 18.8328 27.9151C21.0233 27.9151 22.5242 29.6084 22.5242 32.0757C22.5242 34.5429 21.0186 36.2363 18.8328 36.2363ZM10.5022 24.6923H6.67001V23.4257C6.67001 21.5307 7.41114 20.8037 9.33432 20.8037C9.92997 20.8037 10.4131 20.8178 10.6899 20.8459V17.5954C10.1644 17.4499 8.88401 17.3045 8.14288 17.3045C4.22617 17.3045 2.4203 19.1526 2.4203 23.1443V24.6875H0V28.2712H2.4203V39.4865H6.67464V28.2758H9.8456L10.5022 24.6923Z" fill="#E8E8E8"/>
</svg>
