<svg width="128" height="56" viewBox="0 0 128 56" fill="none" xmlns="http://www.w3.org/2000/svg">
<path d="M10.2113 11.1202C7.7412 12.1552 5.0257 15.0792 4.16805 18.7494C3.08191 23.3998 7.60185 25.3663 7.97258 24.7215C8.40892 23.9638 7.16266 23.7076 6.90612 21.2948C6.57457 18.1785 8.02192 14.6963 9.84345 13.1684C10.182 12.8845 10.1659 13.2796 10.1659 14.0104C10.1659 15.3173 10.0938 27.0489 10.0938 29.4973C10.0938 32.8103 9.95709 33.8565 9.71158 34.8902C9.46282 35.9379 9.06289 36.6457 9.36593 36.9184C9.70451 37.2234 11.1501 36.4979 11.987 35.3287C12.9905 33.9265 13.3418 32.2424 13.4049 30.4136C13.481 28.209 13.4778 24.7108 13.481 22.7154C13.4841 20.8854 13.5118 15.5266 13.449 12.3051C13.4336 11.5149 11.2444 10.6859 10.2112 11.1192M97.9259 26.6247C97.8462 28.3471 97.4653 29.6933 96.9926 30.6429C96.0775 32.4812 94.1786 33.0521 93.3724 30.4094C92.933 28.9689 92.9125 26.563 93.2284 24.5528C93.5499 22.505 94.4478 20.9584 95.9345 21.0979C97.401 21.2358 98.0873 23.1273 97.9259 26.6247ZM73.2043 37.3106C73.1844 40.1724 72.7344 42.6816 71.7695 43.4103C70.401 44.4437 68.5616 43.6686 68.9425 41.5803C69.2795 39.7324 70.8733 37.8452 73.2081 35.5393C73.2081 35.5393 73.213 36.0651 73.2043 37.3106ZM72.8305 26.6081C72.7468 28.1768 72.3405 29.7527 71.8973 30.6431C70.9824 32.4814 69.0696 33.0561 68.277 30.4096C67.7351 28.6014 67.8648 26.2611 68.133 24.7865C68.481 22.8732 69.3244 21.0983 70.8392 21.0983C72.3119 21.0983 73.0381 22.7155 72.8305 26.6081ZM58.5092 26.5841C58.4195 28.2455 58.0957 29.6344 57.576 30.6431C56.6359 32.4688 54.776 33.0478 53.9558 30.4096C53.3644 28.5073 53.5657 25.9134 53.8117 24.5122C54.1768 22.4328 55.0909 20.9586 56.5179 21.0983C57.9837 21.2417 58.6963 23.1273 58.5092 26.5841ZM124.14 28.5247C123.782 28.5247 123.618 28.8944 123.483 29.5168C123.014 31.6807 122.521 32.1693 121.885 32.1693C121.174 32.1693 120.536 31.0978 120.372 28.9529C120.243 27.2663 120.263 24.1612 120.428 21.0725C120.462 20.4379 120.287 19.81 118.587 19.1916C117.855 18.9257 116.791 18.534 116.262 19.8136C114.765 23.4288 114.18 26.2989 114.042 27.4649C114.035 27.5252 113.961 27.5375 113.948 27.3966C113.86 26.4627 113.664 24.7657 113.64 21.2004C113.635 20.5048 113.488 19.9127 112.721 19.4279C112.223 19.1133 110.712 18.557 110.168 19.2189C109.696 19.7602 109.15 21.2169 108.583 22.9436C108.122 24.3471 107.8 25.2965 107.8 25.2965C107.8 25.2965 107.807 21.5097 107.812 20.0733C107.814 19.5314 107.443 19.3508 107.331 19.3181C106.827 19.1717 105.834 18.9271 105.413 18.9271C104.893 18.9271 104.765 19.2181 104.765 19.642C104.765 19.6975 104.683 24.6277 104.683 28.0751C104.683 28.2248 104.683 28.3882 104.685 28.5618C104.397 30.1462 103.464 32.2971 102.45 32.2971C101.434 32.2971 100.955 31.3979 100.955 27.288C100.955 24.8905 101.027 23.848 101.062 22.1139C101.083 21.1151 101.123 20.3481 101.12 20.174C101.113 19.6403 100.191 19.3713 99.7617 19.2718C99.3307 19.1716 98.9561 19.1327 98.6636 19.1494C98.2496 19.1728 97.9566 19.4447 97.9566 19.8186C97.9566 20.0191 97.9589 20.4003 97.9589 20.4003C97.4257 19.5616 96.5681 18.9778 95.9974 18.8086C94.4605 18.3517 92.8568 18.7566 91.6471 20.451C90.6857 21.7973 90.1061 23.3221 89.878 25.5129C89.7112 27.1145 89.7657 28.7387 90.062 30.1122C89.7039 31.6621 89.0391 32.2971 88.311 32.2971C87.2541 32.2971 86.4879 30.5702 86.5768 27.5837C86.6355 25.6193 87.0282 24.2408 87.4574 22.2465C87.6405 21.3963 87.4918 20.9512 87.1188 20.5246C86.7767 20.1334 86.0479 19.9335 85.0001 20.1793C84.2538 20.3546 83.1867 20.5431 82.2104 20.6879C82.2104 20.6879 82.2694 20.4526 82.3177 20.0378C82.5716 17.8625 80.2102 18.039 79.4567 18.7338C79.007 19.1486 78.7009 19.6378 78.5847 20.5175C78.4004 21.9134 79.5378 22.5718 79.5378 22.5718C79.1646 24.2817 78.2499 26.5153 77.3055 28.1303C76.7997 28.9955 76.4128 29.6366 75.9132 30.3182C75.9114 30.0644 75.91 29.8106 75.9091 29.5581C75.8977 25.9632 75.9455 23.134 75.9666 22.1142C75.9871 21.1154 76.0272 20.3688 76.0249 20.1947C76.0193 19.8043 75.7915 19.6569 75.3178 19.4702C74.8989 19.3051 74.4037 19.1908 73.89 19.151C73.2416 19.1004 72.8509 19.4446 72.8611 19.8517C72.8631 19.9285 72.8631 20.4005 72.8631 20.4005C72.3298 19.5617 71.4722 18.9779 70.9016 18.8088C69.3646 18.3521 67.7609 18.7569 66.5512 20.4511C65.59 21.7974 64.9605 23.6866 64.7821 25.4964C64.6159 27.183 64.6466 28.6164 64.8731 29.8238C64.6287 31.0329 63.9261 32.2972 63.1316 32.2972C62.116 32.2972 61.538 31.398 61.538 27.2882C61.538 24.8906 61.6099 23.8481 61.6453 22.1142C61.6658 21.1154 61.7054 20.3482 61.7032 20.1744C61.6957 19.6406 60.7736 19.3716 60.3446 19.272C59.8957 19.1681 59.5081 19.1298 59.2105 19.1518C58.8179 19.1811 58.5418 19.5331 58.5418 19.7956V20.4005C58.0086 19.5617 57.1509 18.9779 56.5803 18.8088C55.0434 18.3521 53.4486 18.7634 52.23 20.4511C51.4353 21.5516 50.792 22.7716 50.4609 25.4724C50.3652 26.2528 50.3229 26.9837 50.3284 27.6668C50.0115 29.6067 48.6119 31.8426 47.467 31.8426C46.7971 31.8426 46.159 30.5418 46.159 27.7697C46.159 24.0771 46.3874 18.8195 46.426 18.3128C46.426 18.3128 47.8725 18.2882 48.1526 18.285C48.8742 18.277 49.5277 18.2941 50.4887 18.2449C50.9707 18.2203 51.4351 16.4887 50.9376 16.2744C50.7121 16.1774 49.1185 16.0924 48.4868 16.0789C47.9556 16.0669 46.4768 15.9573 46.4768 15.9573C46.4768 15.9573 46.6094 12.4676 46.6403 12.099C46.6665 11.7917 46.2694 11.6336 46.0416 11.5376C45.4879 11.3031 44.9925 11.1909 44.4052 11.0697C43.5939 10.9021 43.2258 11.066 43.1539 11.7515C43.0456 12.7918 42.9895 15.8388 42.9895 15.8388C42.3941 15.8388 40.3603 15.7223 39.7648 15.7223C39.2114 15.7223 38.6142 18.1044 39.3792 18.1337C40.2594 18.1678 41.7933 18.1973 42.8102 18.228C42.8102 18.228 42.7649 23.5722 42.7649 25.2221C42.7649 25.3976 42.7664 25.5666 42.7667 25.7307C42.2071 28.6506 40.2358 30.2279 40.2358 30.2279C40.6592 28.2962 39.7944 26.8456 38.2368 25.6176C37.6629 25.1651 36.53 24.3084 35.2625 23.3697C35.2625 23.3697 35.9966 22.6454 36.6476 21.1883C37.109 20.1561 37.1289 18.9749 35.9966 18.7145C34.1257 18.2838 32.5831 19.6592 32.123 21.1275C31.7665 22.2649 31.9566 23.109 32.655 23.9858C32.706 24.0499 32.7613 24.1153 32.8183 24.1812C32.396 24.996 31.8159 26.093 31.3245 26.9438C29.9606 29.3057 28.9303 31.174 28.1517 31.174C27.5293 31.174 27.5376 29.2772 27.5376 27.5013C27.5376 25.9703 27.6506 23.6686 27.7408 21.2855C27.7706 20.4973 27.3769 20.0483 26.717 19.6417C26.316 19.3946 25.4601 18.9088 24.9645 18.9088C24.2226 18.9088 22.0822 19.0099 20.0598 24.8659C19.8049 25.6039 19.3042 26.9488 19.3042 26.9488L19.3473 19.9068C19.3473 19.7417 19.2595 19.5821 19.0583 19.4729C18.7175 19.2877 17.8073 18.9088 16.9979 18.9088C16.6123 18.9088 16.4198 19.0884 16.4198 19.4463L16.3492 30.4636C16.3492 31.3007 16.3711 32.2772 16.4537 32.7044C16.5361 33.132 16.6696 33.4799 16.8349 33.6869C16.9999 33.8935 17.1908 34.0511 17.5056 34.1161C17.7986 34.1765 19.4028 34.3827 19.4862 33.769C19.5861 33.0336 19.5899 32.2381 20.4323 29.2714C21.7437 24.6526 23.4535 22.3989 24.2573 21.5986C24.3978 21.4587 24.5583 21.4504 24.5506 21.6793C24.5163 22.692 24.3956 25.2223 24.3144 27.372C24.0966 33.1249 25.1421 34.1912 26.6362 34.1912C27.7793 34.1912 29.3905 33.0543 31.1178 30.1765C32.1946 28.383 33.2401 26.6245 33.9913 25.3571C34.5148 25.8422 35.1023 26.3643 35.6893 26.922C37.0536 28.2182 37.5015 29.4497 37.2043 30.6181C36.977 31.5113 36.121 32.4318 34.5975 31.5371C34.1534 31.2761 33.9639 31.0744 33.5174 30.7802C33.2775 30.6221 32.9113 30.5748 32.6917 30.7404C32.1213 31.1709 31.795 31.7185 31.6088 32.3965C31.4276 33.0561 32.0875 33.4048 32.7717 33.7098C33.3608 33.9723 34.6269 34.2102 35.4344 34.2373C38.5806 34.3426 41.1009 32.7167 42.8554 28.5227C43.1694 32.1447 44.506 34.1944 46.8283 34.1944C48.3809 34.1944 49.9375 32.1856 50.6182 30.2094C50.8136 31.0149 51.1029 31.7154 51.4764 32.3078C53.2659 35.1458 56.7372 34.535 58.481 32.1251C59.0201 31.3804 59.1021 31.1128 59.1021 31.1128C59.3565 33.3884 61.1871 34.1834 62.2353 34.1834C63.4092 34.1834 64.6213 33.6279 65.4708 31.7135C65.5704 31.9213 65.6791 32.1197 65.7977 32.3078C67.5871 35.1458 71.0585 34.5349 72.8022 32.125C72.8845 32.012 72.9558 31.9094 73.0181 31.8174L73.0693 33.3121C73.0693 33.3121 72.0746 34.2255 71.464 34.7859C68.7765 37.254 66.7329 39.1265 66.5826 41.3071C66.3896 44.0876 68.6424 45.121 70.3467 45.2564C72.1566 45.4002 73.7066 44.3993 74.6593 42.9987C75.4972 41.7659 76.0457 39.1125 76.0054 36.4919C75.9894 35.4425 75.963 34.1081 75.9423 32.6779C76.8869 31.5798 77.9511 30.192 78.931 28.5676C79.9989 26.7973 81.1433 24.4199 81.7294 22.5697C81.7294 22.5697 82.7238 22.5782 83.7849 22.5087C84.1244 22.4865 84.2219 22.5559 84.1591 22.805C84.0833 23.1059 82.8184 27.9897 83.9728 31.2431C84.763 33.4703 86.5443 34.1868 87.6004 34.1868C88.8367 34.1868 90.0194 33.2523 90.6531 31.8645C90.7295 32.0192 90.8093 32.1689 90.8965 32.3071C92.6859 35.1452 96.1451 34.5307 97.901 32.1244C98.2973 31.5815 98.5222 31.1122 98.5222 31.1122C98.899 33.4672 100.729 34.1948 101.777 34.1948C102.868 34.1948 103.904 33.7468 104.745 31.7559C104.78 32.6325 104.835 33.3493 104.923 33.5752C104.976 33.7134 105.286 33.8869 105.512 33.9707C106.51 34.3414 107.529 34.1661 107.906 34.0899C108.167 34.037 108.37 33.8274 108.398 33.286C108.471 31.8647 108.426 29.4767 108.857 27.702C109.579 24.7234 110.253 23.5681 110.573 22.9961C110.752 22.6756 110.954 22.6228 110.961 22.9619C110.976 23.6482 111.01 25.6635 111.29 28.3711C111.496 30.3625 111.771 31.5396 111.982 31.9121C112.584 32.9774 113.328 33.0278 113.933 33.0278C114.319 33.0278 115.125 32.9212 115.053 32.2433C115.017 31.9129 115.079 29.8707 115.791 26.9364C116.257 25.0201 117.032 23.2887 117.312 22.6557C117.415 22.4223 117.463 22.6063 117.461 22.6421C117.402 23.9618 117.27 28.2783 117.807 30.639C118.535 33.8371 120.641 34.195 121.375 34.195C122.942 34.195 124.224 33.002 124.655 29.8629C124.759 29.1074 124.605 28.5241 124.144 28.5241" fill="#E8E8E8"/>
</svg>
