<svg width="128" height="56" viewBox="0 0 128 56" fill="none" xmlns="http://www.w3.org/2000/svg">
<path d="M53.1269 19.1488C55.4665 19.0118 57.7452 17.9195 57.9012 15.4877C58.0001 13.8551 56.7143 12.1768 54.1502 12.0627C52.8481 11.9645 51.5529 12.3268 50.4906 13.0864C49.7791 13.6395 49.2892 14.4293 49.1096 15.3127C48.8547 16.3592 48.9955 17.2421 49.5205 17.9157C50.1938 18.791 51.4949 19.2249 53.1269 19.1335" fill="#E8E8E8"/>
<path d="M120.359 22.0591C120.036 22.8203 119.351 23.5814 118.738 23.6956L118.453 23.7717C118.453 23.7717 118.681 22.1162 118.689 21.6177C118.689 19.3609 118.13 17.0052 114.603 17.2602C112.442 17.4162 109.319 19.3571 108.897 23.4178V23.4406V23.4672C108.893 23.495 108.893 23.5232 108.897 23.551C108.38 24.9705 107.428 26.976 106.732 27.0636C106.659 27.0717 106.586 27.0633 106.516 27.0389C106.447 27.0145 106.385 26.9748 106.333 26.9228C106.261 26.848 106.206 26.7587 106.171 26.661C106.136 26.5632 106.123 26.4591 106.131 26.3557C106.2 25.6913 106.328 25.0342 106.512 24.392C106.798 23.2679 106.992 22.1224 107.094 20.9669C107.311 18.1964 105.606 17.675 103.86 17.8349C102.806 17.9497 101.817 18.4053 101.045 19.1326L100.425 19.8633C100.425 19.8633 100.691 18.4894 100.771 18.1165L96.826 18.3144L95.5364 23.9544C95.1277 24.5727 94.5337 25.0456 93.8397 25.3054L93.581 25.3739L93.5468 25.0846C93.5158 24.7988 93.4663 24.5153 93.3984 24.236C93.2995 23.6118 92.7099 21.4617 90.6175 21.671C85.2041 22.2114 85.4704 28.9017 88.685 27.916L89.0654 27.7943L89.0007 28.1748C88.6203 30.8388 87.479 32.2773 85.9345 32.5133C85.8211 32.53 85.7055 32.5209 85.5961 32.4866C85.4868 32.4523 85.3866 32.3938 85.303 32.3154C85.1463 32.137 85.0273 31.9287 84.9534 31.703C84.8795 31.4773 84.8522 31.239 84.8731 31.0024C84.8731 29.6933 87.3078 18.752 87.3078 18.752L82.2862 19.0184C82.0542 20.0155 81.0841 24.373 81.0841 24.3844L80.9357 24.9476C80.7455 25.6897 80.62 26.1768 80.5553 26.6906V26.7173C80.5553 26.7515 80.5287 26.7819 80.5173 26.8124C79.7564 28.8827 78.4173 31.1204 77.3636 31.2688C77.2682 31.2827 77.171 31.2752 77.0789 31.2469C76.9868 31.2186 76.9021 31.1702 76.831 31.1052C76.7497 31.0258 76.6861 30.9302 76.6441 30.8247C76.6022 30.7191 76.5829 30.6059 76.5875 30.4925L76.6598 29.5905C76.6598 29.5905 79.1782 19.7948 79.3532 19.1478C78.7559 19.1821 73.6278 19.3495 73.6278 19.3495L73.1447 21.1344C72.9849 19.6806 69.9073 17.7854 67.6513 19.8899C65.2585 22.12 64.6422 25.4081 64.3302 28.6429L64.2922 28.7609C63.8319 32.6655 62.9797 35.3485 60.2749 35.7404C59.7467 35.8646 59.1918 35.8028 58.7038 35.5654C59.4697 35.0139 60.1166 34.3137 60.6059 33.5065C61.5836 31.8168 61.1042 30.3631 60.0505 29.7009C57.9277 28.3461 55.668 30.0814 55.2838 32.2164C55.1095 33.277 55.3418 34.3643 55.9343 35.2609C55.2229 35.6948 54.6409 36.1476 53.6518 36.3037C53.397 36.354 53.1338 36.3426 52.8843 36.2704C52.6348 36.1982 52.4062 36.0674 52.2176 35.8889C51.6051 35.0897 52.3735 32.4638 52.4877 32.1365C52.4877 32.1365 56.018 21.0278 56.2272 20.339C55.5767 20.377 48.7367 20.7196 48.4019 20.7386C48.1813 21.4312 47.3633 24.1637 46.4998 26.6564C44.8183 31.5656 39.85 38.294 34.6306 39.7478C31.8573 40.5089 29.6851 40.4176 28.2851 39.588C26.383 38.4463 25.2683 35.6948 25.9303 31.8016C26.1872 29.9402 26.7313 28.13 27.5433 26.4356C31.7888 17.0471 38.8799 19.0375 38.4614 19.7453C37.9969 19.9103 37.5486 20.118 37.1223 20.3656C36.0077 20.9974 34.2273 22.7898 34.1855 24.9628C34.1626 26.3747 34.5659 27.505 35.3267 28.2395C35.7464 28.6111 36.243 28.8853 36.781 29.0425C37.3189 29.1997 37.885 29.2361 38.4386 29.1491C39.8206 29.0313 41.1075 28.3967 42.0425 27.3718C42.9775 26.3468 43.4919 25.007 43.483 23.6195C43.5173 21.9259 43.0227 20.5749 42.0298 19.5626C40.4434 17.9643 38.606 17.1727 34.5164 17.3516C28.2509 17.6218 18.7403 22.2875 16.142 32.3039C15.267 35.6948 16.5566 39.7364 18.6033 41.5517C21.4451 44.071 24.9336 44.9768 31.0051 43.7247C36.4186 42.6134 40.8125 38.8459 44.0308 34.9032C44.0308 34.9679 44.0308 35.0288 44.008 35.0859C43.2852 37.9439 44.3884 40.9694 49.1361 40.2768C51.9951 39.7788 54.6937 38.6045 57.0071 36.8517C58.1484 37.8069 60.0505 38.374 62.2798 37.9934C63.1738 37.8412 65.4829 37.1866 67.4725 34.2448C69.0437 31.912 69.7741 27.3947 70.185 24.9781C70.2637 24.2332 70.4245 23.4994 70.6643 22.7898C70.7872 22.4334 71.0362 22.1343 71.3643 21.9488C72.2088 21.5682 72.6615 22.4169 72.5056 23.0334C72.3496 23.6499 71.5164 26.7591 71.5164 26.7591L71.3567 27.2538C70.8583 28.7761 70.2991 30.4848 70.2839 32.3039C70.2839 33.6283 70.6339 34.6711 71.3415 35.3028C71.9844 35.9041 72.9126 36.1248 74.0044 35.9383C76.9869 35.4436 79.0679 32.3839 80.0417 30.6104L80.1749 30.3631L80.3841 30.0091L80.5097 30.6713C81.027 33.3124 83.1232 34.34 86.2465 33.8262C90.3018 33.164 92.7137 31.0138 93.387 27.3566L93.4174 27.2006L93.5696 27.1435C93.9607 26.9908 94.3312 26.7901 94.6728 26.546L94.9772 26.3291L93.6153 32.2278C94.1935 32.1251 97.9977 31.4324 98.3021 31.3868C98.3744 31.0062 99.9227 23.8897 99.9227 23.8897C100.193 22.649 100.946 20.2857 101.851 20.221C101.942 20.2102 102.033 20.2215 102.118 20.254C102.203 20.2865 102.278 20.3392 102.338 20.4075C102.561 20.6629 102.676 20.9939 102.662 21.3323C102.593 22.2369 102.42 23.1307 102.148 23.9962C101.773 25.3667 101.518 26.7675 101.387 28.1824C101.197 30.6523 103.289 30.6104 103.887 30.5077C105.37 30.2679 107.311 29.4763 108.912 25.7811L109.011 26.1616C109.193 27.0941 109.733 27.918 110.516 28.4566C111.298 28.9952 112.26 29.2055 113.196 29.0425C114.263 28.9035 115.271 28.4756 116.113 27.8048C116.954 27.1341 117.596 26.2462 117.97 25.2369L118.031 25.0732L118.172 25.0466C119.096 24.9362 120.351 23.8516 120.648 22.6033C120.572 22.4122 120.478 22.2287 120.367 22.0553M58.3766 30.8502C59.225 30.8768 59.5673 31.3868 59.1108 32.4181C58.687 33.1822 58.103 33.8456 57.3989 34.3628C56.3185 32.715 57.3152 30.8274 58.3766 30.8502ZM89.4458 25.9028C89.1833 26.1904 88.8187 26.3639 88.4301 26.3862C87.8785 26.4851 87.7415 26.1845 87.7073 26.0589C87.5893 25.5679 88.0877 24.7688 88.567 24.5366C88.6681 24.4791 88.7831 24.4507 88.8993 24.4548C89.0155 24.4588 89.1283 24.495 89.2252 24.5594C89.6284 24.9971 89.4458 25.8838 89.4458 25.8838M115.258 25.2483C114.938 26.2682 114.497 27.368 113.591 27.4936C113.46 27.5266 113.322 27.5279 113.19 27.4974C113.058 27.467 112.934 27.4057 112.83 27.3185C112.515 27.0369 112.385 26.7858 112.389 25.8648C112.389 23.6918 113.454 18.2535 114.984 18.1698C115.09 18.161 115.196 18.1779 115.294 18.2189C115.392 18.26 115.479 18.3241 115.547 18.4057C115.874 18.752 116.015 19.437 115.95 20.2362V20.3352C115.95 20.3352 114.345 20.4265 114.215 22.8317C114.198 23.2501 114.294 23.6654 114.491 24.0347C114.688 24.404 114.98 24.7139 115.337 24.9324L115.258 25.2483ZM115.668 23.6385C115.136 23.315 115.143 22.3712 115.425 22.0211C115.474 21.9446 115.549 21.8883 115.637 21.8625C115.724 21.8367 115.817 21.843 115.9 21.8803C115.892 22.4734 115.815 23.0636 115.668 23.6385Z" fill="#E8E8E8"/>
<path d="M52.91 3C47.1047 3.23214 43.0684 7.14435 41.1511 9.4696C37.0383 8.2037 32.6641 8.04747 28.4716 9.01673C24.1652 9.99478 17.9795 12.3391 13.4981 16.0648C5.6195 22.6257 1.54897 30.5034 2.03972 38.2327C2.32504 42.8261 4.49725 46.765 8.30149 49.6078C14.4986 54.224 24.3706 53.0329 28.3384 52.2908C32.5231 51.5068 99.6146 38.3849 108.608 36.5163C116.977 34.7734 124.939 31.7745 126.412 21.6363C126.493 21.0192 126.534 20.3976 126.537 19.7753C126.518 17.1684 125.662 14.729 124.201 13.0888C121.516 10.0747 117.255 9.78166 114.28 9.81972C111.91 9.85017 94.8783 10.4248 64.9998 11.4752C64.6425 9.67207 63.8127 7.99627 62.5956 6.61917C60.9978 4.85716 58.0305 2.81352 52.9214 3.01522M41.9462 10.6912C43.7113 8.40783 47.4965 4.60218 52.9785 4.37384C57.5435 4.18736 60.1799 5.98743 61.5836 7.52492C62.7706 8.85277 63.5371 10.503 63.7863 12.2668L63.8738 12.868L64.4787 12.8452C69.1731 12.6892 110.445 11.2278 114.314 11.1821C117.015 11.1479 120.88 11.3953 123.193 13.9831C124.418 15.3722 125.145 17.4539 125.183 19.6916V19.7905C125.192 20.3444 125.155 20.8981 125.073 21.446C123.73 30.7508 116.231 33.5441 108.334 35.1882C99.5119 37.0187 32.3785 50.1596 28.0911 50.9512C24.2869 51.6514 14.8752 52.8197 9.12701 48.5194C5.63092 45.9125 3.65652 42.3276 3.39403 38.1528C2.93371 30.8573 6.81784 23.3907 14.3731 17.1037C18.6566 13.5302 24.6179 11.2925 28.7683 10.3601C32.8794 9.40214 37.1745 9.5917 41.1853 10.9081L41.6494 11.0604L41.9462 10.6912Z" fill="#E8E8E8"/>
</svg>
