<svg width="1198" height="465" viewBox="0 0 1198 465" fill="none" xmlns="http://www.w3.org/2000/svg">
<path d="M630.272 9.65942C635.081 13.2229 644.956 23.2265 645.535 29.2802C645.643 30.4609 645.342 37.9099 645.17 39.3911C644.677 43.9206 642.573 51.9922 640.898 56.3499C637.099 66.2462 628.662 73.2873 619.925 78.4394C625.85 89.2158 642.637 90.2891 649.85 101.044C660.605 117.08 655.968 134.447 646.158 149.516C640.984 157.481 628.169 167.355 619.646 171.262C598.609 180.901 592.383 176.371 571.195 175.384C556.77 174.697 542.988 176.157 528.841 178.583C528.047 173.409 531.009 168.386 531.997 164.049C535.067 150.59 535.11 141.552 535.238 127.62C535.324 116.436 535.904 103.77 535.26 92.307C534.723 82.6254 531.16 70.4967 530.945 61.1371C530.859 57.4448 532.448 54.2033 532.104 50.468C531.718 46.0244 526.866 27.1549 524.741 23.4626C521.113 17.1728 510.38 13.8884 511.711 4.95816C517.979 1.71666 522.423 6.84725 527.403 7.77032C536.118 9.40181 560.698 9.29447 568.834 6.82578C570.251 6.39644 571.002 4.52886 572.505 4.05659C591.245 -1.61067 613.678 -2.6626 630.272 9.63793V9.65942ZM602.516 69.9814C602.902 69.638 608.505 62.1889 608.72 61.7167C609.535 59.849 608.999 57.8311 609.578 56.1353C610.931 52.2927 612.734 51.3911 612.519 46.2391C612.347 42.1174 606.551 30.6111 603.138 28.722C598.072 25.9099 580.534 22.0244 575.661 25.18C573.042 26.8759 567.653 40.5718 567.546 44.1353C567.482 46.3034 568.684 48.2784 568.598 50.4465C568.319 59.0977 567.482 67.9635 568.512 76.722C577.056 74.2104 595.968 75.9277 602.516 69.96V69.9814ZM619.754 145.116C620.762 143.334 621.235 129.552 620.934 126.718C620.505 122.618 618.594 113.881 617.607 109.674C616.319 104.157 604.92 96.1281 599.639 94.3893C592.77 92.1138 584.805 92.951 577.635 92.8222C575.017 92.7793 572.612 90.5897 570.015 92.7149C566.215 95.8276 569.628 117.337 569.628 123.327C569.628 134.704 567.589 145.867 568.984 157.201L571.195 158.21C578.494 156.751 587.596 160.593 594.294 159.885C597.728 159.52 610.566 155.312 613.313 153.252C615.589 151.534 615.546 149.28 616.941 147.069C617.671 145.91 619.496 145.588 619.754 145.137V145.116Z" fill="#E8E8E8"/>
<path d="M775.302 26.5764C776.053 27.1345 776.375 29.5602 776.612 30.6336L780.755 27.5424C780.841 28.2508 781.012 29.1953 781.635 29.5602C785.177 31.664 797.757 37.2025 799.882 39.5424C813.943 55.0844 822.83 69.4243 824.848 91.2347C827.252 117.145 824.547 134.898 810.916 157.46C798.014 178.82 777.341 189.36 753.299 196.594C665.005 198.247 661.785 81.2955 720.883 37.6747C727.603 32.7159 754.436 20.9735 762.057 22.0254C764.182 22.3259 764.934 24.4297 766.672 25.0093C768.755 25.6962 774.229 25.8036 775.281 26.5764H775.302ZM782.73 58.8196C781.527 57.0164 765.449 48.6873 762.916 48.0862C756.132 46.4332 747.674 52.3366 742.694 56.8017C729.621 68.5656 728.612 78.7195 723.782 94.1327C721.528 101.324 722.558 98.4475 721.957 106.24C721.57 111.435 719.467 116.759 718.951 121.482C718.479 125.711 719.703 146.576 720.883 150.054C721.656 152.372 723.438 153.317 723.846 154.648C724.468 156.752 723.61 159.07 724.619 161.389C726.529 165.811 740.998 173.367 746 173.26C748.919 173.195 758.214 169.331 760.898 167.657C776.011 158.297 782.944 133.181 786.336 116.973C789.277 102.891 791.66 87.8644 787.968 73.4172C787.581 71.8716 783.18 59.4422 782.751 58.7982L782.73 58.8196Z" fill="#E8E8E8"/>
<path d="M1186.72 418.024C1172.08 440.973 1161.32 451.105 1135.69 461.688C1134.87 462.032 1134.83 463.684 1134.14 463.77C1132.51 463.964 1129.44 462.504 1126.8 462.547C1123.35 462.633 1121.41 464.457 1118.26 464.822C1086.7 468.665 1058.88 449.108 1045.23 421.953C1041.79 415.105 1042.5 410.983 1040.72 406.153C1039.35 402.375 1031.9 393.874 1029.32 389.581C1027.52 386.554 1026.23 380.994 1024.81 379.062C1023.55 377.323 1019.77 377.237 1021.21 373.202C1023.25 367.47 1042.27 378.01 1047.63 372.794C1075.99 358.776 1102.03 340.529 1129.1 324.493C1131.59 323.012 1134.79 322.668 1137.34 320.93C1145.07 315.67 1144.23 303.069 1146.98 295.169C1147.37 294.075 1148.72 290.447 1150.37 291.091C1154.3 292.615 1168.25 320.2 1171.52 325.717C1190.92 358.561 1210.87 380.092 1186.72 417.96V418.024ZM1154.92 416.243C1157.14 413.989 1170.59 392.028 1171.26 389.151C1172.93 382.024 1173.6 368.393 1171.26 361.416C1170.75 359.871 1165.1 351.52 1164.15 351.305C1153.34 350.769 1147.93 356.007 1139.42 360.557C1120.83 370.497 1103.73 380.93 1085.84 391.685C1077.34 396.794 1068 400.808 1059.83 406.497C1059.03 408.965 1069.29 425.581 1072.08 427.32C1073.22 428.028 1082.39 431.699 1084.23 432.321C1105.08 439.341 1130.02 431.785 1147.39 419.978C1149.11 418.797 1154.37 416.801 1154.92 416.243Z" fill="#E8E8E8"/>
<path d="M278.205 213.598C280.996 217.161 291.064 227.208 294.627 229.87C305.511 237.984 327.214 244.746 338.592 235.022C339.493 234.249 340.373 232.274 341.575 231.05C343.572 228.989 346.856 228.839 346.341 225.447C346.148 224.159 339.987 212.352 338.763 210.399C336.831 207.286 325.69 194.191 323.071 192.56C321.976 191.873 315.021 189.512 313.647 189.383C308.409 188.911 297.461 193.268 296.066 186.141L335.844 158.878C340.481 157.183 343.658 152.46 349.046 152.803C349.905 152.954 350.742 167.809 351.214 170.063C353.897 182.9 365.082 198.571 373.304 208.832C376.974 213.426 382.148 213.984 380.731 221.927C380.474 223.322 376.33 230.664 375.257 232.574C373.475 235.687 372.66 236.331 370.513 240.689C366.284 249.254 347.5 262.327 338.463 265.462C336.595 266.106 331.787 266.406 331.55 266.664C331.1 267.093 331.98 269.025 330.756 269.755C328.137 271.279 317.339 270.957 313.754 270.764C281.855 269.09 243.579 244.789 233.511 213.748C230.012 202.929 225.225 179.336 227.694 168.689C233.168 145.011 243.751 124.488 267.064 114.785C272.881 112.36 285.568 110.921 289.561 108.324C293.275 105.92 294.756 100.038 297.096 96.517C297.719 95.5939 299.479 95.3793 299.994 94.6494C301.776 92.1163 300.939 87.0716 305.661 86.3846L326.935 139.494C326.162 144.045 310.363 136.51 307.164 135.823C293.06 132.86 277.089 133.569 266.098 143.852C258.542 150.914 258.563 165.748 260.044 175.429C261.762 186.785 271.035 204.496 278.162 213.598H278.205Z" fill="#E8E8E8"/>
<path d="M1032.59 161.777C1038.02 168.153 1041.74 173.799 1048.5 179.681C1051.66 182.429 1054.94 185.155 1058.78 186.743C1059.36 197.391 1055.39 207.588 1053.61 217.978C1048.89 245.606 1044.27 273.191 1039.4 300.797C1041.91 303.244 1052.69 292.232 1054.98 290.15C1067.54 278.751 1076.02 270.572 1085.89 256.146C1088.26 252.69 1091.69 252.754 1092.74 246.421C1093.49 241.956 1090.53 227.101 1094.76 225.835C1098.11 224.847 1107.36 237.427 1110.13 240.26C1113.87 244.103 1117.82 248.718 1121.29 252.196C1125.07 255.974 1138.57 263.037 1133.29 268.704C1130.14 272.096 1127.3 268.833 1123.61 268.64C1110.35 267.974 1107.53 270.164 1097.42 277.87C1087.27 285.599 1078.47 296.096 1067.71 303.395L1007.78 359.767C997.709 347.445 1006.04 327.566 1008.16 313.012C1010.29 298.479 1011.77 283.838 1013.79 269.327C1015.7 255.609 1019.8 241.828 1018.53 227.896C1017.35 226.328 1017.24 227.294 1016.06 227.616C1011.17 229.012 1007.61 235.645 1004.06 239.209C989.659 253.634 961.408 276.325 962.203 298.135C962.267 300.132 964.972 307.624 961.644 308.332C958.639 308.955 932.256 282.185 925.709 280.962C927.533 272.332 935.82 274.5 942.024 271.774C945.952 270.035 946.875 266.386 948.528 264.668C953.444 259.559 962.868 252.26 969.136 246.142C983.476 232.124 997.923 217.42 1011.96 202.092C1017.59 195.953 1026.58 186.55 1026.47 178.092C1026.45 175.903 1023.88 172.554 1023.47 169.441C1022.12 159.158 1023.3 150.872 1032.66 161.842L1032.59 161.777Z" fill="#E8E8E8"/>
<path d="M921.194 88.3386C920.271 89.9272 913.101 91.6231 911.19 92.7823C896.55 101.713 894.296 118.092 888.028 132.882C880.364 150.979 872.142 167.723 863.534 185.82C860.936 191.272 856.235 200.074 858.919 206.17C861.173 211.301 867.699 216.818 872.765 219.137C882.124 223.451 892.3 223.816 901.745 219.501C914.303 213.77 921.237 192.045 927.591 179.938C934.568 166.714 941.759 153.233 948.478 139.687C951.097 134.407 956.121 132.41 954.597 124.467C953.931 120.99 949.616 113.069 948.65 108.968C947.985 106.092 948.156 103.215 948.199 100.317C950.217 98.2134 972.521 115.344 975.827 117.19C981.924 120.582 993.194 122.6 996.414 127.924C996.972 128.825 997.659 129.684 997.552 130.843C991.262 133.204 980.035 136.102 975.119 140.611C973.08 142.478 963.205 159.845 960.865 163.881C956.636 171.115 953.201 179.144 949.08 186.421C935.319 210.786 927.312 221.197 921.623 250.113C921.087 252.797 920.915 268.489 918.704 268.596L886.224 252.303C882.661 246.442 894.639 245.691 893.48 239.68C888.758 240.797 883.842 240.303 879.076 240.84C876.157 241.162 873.945 243.029 870.468 242.943C864.586 242.793 851.491 239.144 846.811 235.408C841.337 231.029 829.38 215.874 827.663 209.519C824.099 196.403 827.491 195.759 830.496 185.004C834.811 169.569 839.191 161.67 845.287 147.265C851.856 131.723 864.779 110.192 870.403 91.7518C875.04 76.5318 868.922 75.5229 866.969 64.1454C866.303 60.217 866.174 58.0488 870.618 59.3798C876.071 61.0113 880.128 64.4245 884.915 66.5497C889.702 68.6749 893.588 69.92 898.461 72.3028C902.861 74.4495 917.695 80.8037 920.292 83.7017C921.409 84.9468 921.988 86.9218 921.151 88.3601L921.194 88.3386Z" fill="#E8E8E8"/>
<path d="M435.515 32.8004C436.546 33.7449 431.244 49.4801 431.201 52.7002C431.05 61.0937 444.574 75.4122 449.469 82.668C461.104 99.9489 472.803 117.101 484.868 134.124C489.376 140.5 493.455 149.387 498.821 155.248C502.213 158.961 506.292 162.482 509.941 166.432C512.023 168.686 524.045 179.076 521.362 181.824C504.338 181.523 487.487 188.65 472.009 195.283C467.952 196.056 465.719 192.772 466.664 188.972C466.857 188.178 468.725 188.328 468.854 187.555C470.142 179.698 464.26 161.795 460.288 154.711C459.365 153.058 455.372 152.779 457.025 147.519C454.879 147.713 452.303 147.112 450.263 147.562C449.469 147.734 449.447 149.301 448.696 149.602C438.564 153.616 428.109 157.351 417.333 159.326C419.029 165.53 417.762 172.056 418.428 178.067C418.943 182.704 420.403 191.892 421.841 196.142C421.97 196.507 426.714 201.401 427.036 201.616C430.406 203.827 436.61 203.548 436.653 209.709L392.131 226.582L389.469 223.104C391.444 208.915 395.136 195.713 394.814 181.33C394.728 177.316 392.024 176.285 395.973 172.765C391.809 166.797 394.428 161.258 394.857 154.453C395.458 145.072 395.007 135.24 394.9 125.537C394.75 111.09 394.943 75.7771 387.151 64.5928C384.317 60.5356 379.594 57.1867 374.507 57.4014L374.378 49.609C378.027 45.9596 384.231 48.278 387.666 47.7628C391.551 47.1832 397.777 45.5947 401.662 44.4998C406.707 43.0616 433.39 30.8469 435.558 32.8218L435.515 32.8004ZM421.97 102.074C419.759 99.0257 418.922 93.2297 414.049 92.8218C412.782 103.663 415.186 114.031 415.938 124.443C416.174 127.684 414.07 140.135 417.741 141.745C421.412 143.355 443.072 137.323 444.038 132.943C443.909 130.625 441.29 130.389 439.938 128.564C433.948 120.557 428.281 110.725 421.948 102.074H421.97Z" fill="#E8E8E8"/>
<path d="M79.7703 314.341L91.4698 328.359L95.1406 330.055C109.931 350.148 128.157 366.935 146.103 384.43C161.28 399.221 175.856 414.699 192.922 427.472C190.604 435.629 186.418 443.056 185.43 451.836C180.364 453.039 174.804 451.064 170.125 450.999C119.763 450.269 67.985 440.931 17.6451 443.357C11.8705 443.636 6.80431 447.307 0.943845 443.808C-2.29766 437.046 3.62721 433.847 6.41791 428.931C15.3481 413.218 19.1693 395.615 26.2533 379.085L35.6988 401.239C42.8687 407.185 47.7202 409.955 57.4018 410.212C62.2319 410.341 66.6111 410.663 72.3642 411.221C98.2533 413.754 124.057 417.296 150.139 416.566C153.788 412.896 136.915 401.582 134.575 399.371C119.248 384.903 103.985 370.692 89.1084 356.91C86.3392 354.355 83.7632 350.105 80.7793 348.108C77.2372 345.747 65.7739 342.355 61.6737 342.634C58.4322 342.849 34.4108 355.965 38.0387 344.802C39.5413 340.187 46.1746 332.48 48.6218 327.436C50.2963 323.98 53.5378 316.166 54.2032 312.624C55.1692 307.321 52.9796 282.506 60.5789 282.527C61.8455 282.527 62.5324 283.257 63.2837 284.137C65.7954 287.057 69.8311 298.842 72.6862 303.672C74.7685 307.214 78.4179 309.897 79.7489 314.32L79.7703 314.341Z" fill="#E8E8E8"/>
<path d="M293.524 293.969C287.148 300.881 278.519 307.45 271.907 314.706C268.193 318.763 265.617 322.885 262.805 326.813C261.624 328.466 258.683 330.012 257.975 332.953L255.291 332.18C252.565 326.298 251.749 317.132 248.465 311.872C245.009 306.334 229.703 296.888 223.134 300.28C220.944 301.418 213.409 311.722 211.306 314.191C210.554 315.071 209.331 315.393 208.451 316.101C202.955 327.028 192.608 328.316 201.259 341.389C203.213 344.33 215.148 356.931 217.81 358.155C220.601 359.443 235.048 353.926 234.984 360.28C234.984 361.611 220.064 377.99 217.939 380.824C215.578 383.98 213.173 387.651 210.876 390.914C208.88 393.747 209.459 398.341 203.384 398.32C200.443 397.504 199.027 383.55 198.189 380.91C189.388 353.003 174.662 328.402 160.236 303.05C154.633 293.196 148.171 279.758 142.01 270.892C141.259 269.819 135.635 262.971 135.163 262.735C131.148 260.76 112.815 265.225 114.898 257.626C122.991 247.923 130.504 237.382 138.898 227.894C141.259 225.232 144.586 223.236 146.583 221.11C148.214 219.371 153.13 210.076 156.05 210.763C160.193 214.198 157.424 218.255 157.703 221.883C158.046 226.434 162.061 231.801 165.86 234.184C176.937 241.139 192.243 245.99 204.028 251.765C223.413 261.253 242.841 270.742 262.053 280.617C264.264 281.754 267.356 285.103 268.901 285.554C275.234 287.379 289.66 283.88 294.941 286.327C295.885 286.778 297.216 288.194 297.002 289.354C295.671 290.728 294.769 292.595 293.502 293.969H293.524ZM201.238 296.073C202.483 293.668 205.381 289.482 202.74 287.379L164.121 268.638C163.842 268.917 165.152 273.232 165.538 274.177C168.372 281.239 173.674 290.341 177.281 296.803L186.683 314.706C188.336 315.114 188.4 314.448 189.281 313.568C192.629 310.262 199.155 300.109 201.259 296.051L201.238 296.073Z" fill="#E8E8E8"/>
</svg>
