<svg width="1200" height="466" viewBox="0 0 1200 466" fill="none" xmlns="http://www.w3.org/2000/svg">
<g clip-path="url(#clip0_2006_21742)">
<path d="M630.529 9.96551C635.338 13.529 645.213 23.5326 645.792 29.5863C645.9 30.767 645.599 38.216 645.427 39.6972C644.934 44.2267 642.83 52.2983 641.156 56.656C637.356 66.5523 628.919 73.5934 620.182 78.7455C626.107 89.5219 642.894 90.5952 650.107 101.35C660.862 117.386 656.225 134.753 646.415 149.822C641.241 157.787 628.426 167.661 619.903 171.568C598.866 181.207 592.64 176.678 571.453 175.69C557.027 175.003 543.245 176.463 529.098 178.889C528.304 173.715 531.266 168.692 532.254 164.356C535.324 150.896 535.367 141.858 535.495 127.926C535.581 116.742 536.161 104.076 535.517 92.6131C534.98 82.9315 531.417 70.8027 531.202 61.4432C531.116 57.7509 532.705 54.5094 532.361 50.7741C531.975 46.3305 527.123 27.461 524.998 23.7687C521.37 17.4789 510.637 14.1945 511.968 5.26426C518.236 2.02275 522.68 7.15334 527.66 8.07642C536.376 9.7079 560.955 9.60056 569.091 7.13187C570.508 6.70253 571.259 4.83495 572.762 4.36268C591.503 -1.30458 613.935 -2.35651 630.529 9.94403V9.96551ZM602.773 70.2875C603.159 69.9441 608.762 62.495 608.977 62.0228C609.792 60.1551 609.256 58.1372 609.835 56.4414C611.188 52.5988 612.991 51.6972 612.776 46.5451C612.605 42.4235 606.808 30.9172 603.395 29.0281C598.329 26.216 580.791 22.3305 575.918 25.4861C573.299 27.182 567.91 40.8779 567.803 44.4414C567.739 46.6095 568.941 48.5845 568.855 50.7526C568.576 59.4038 567.739 68.2696 568.769 77.0281C577.313 74.5165 596.225 76.2338 602.773 70.266V70.2875ZM620.011 145.422C621.02 143.64 621.492 129.858 621.191 127.025C620.762 122.924 618.851 114.187 617.864 109.98C616.576 104.463 605.177 96.4342 599.896 94.6954C593.027 92.4199 585.063 93.2571 577.893 93.1283C575.274 93.0854 572.869 90.8958 570.272 93.021C566.472 96.1337 569.885 117.644 569.885 123.633C569.885 135.01 567.846 146.173 569.241 157.508L571.453 158.517C578.751 157.057 587.853 160.899 594.551 160.191C597.986 159.826 610.823 155.618 613.571 153.558C615.846 151.84 615.803 149.586 617.198 147.375C617.928 146.216 619.753 145.894 620.011 145.443V145.422Z" fill="#EBAC3D"/>
<path d="M775.559 26.8825C776.311 27.4406 776.633 29.8663 776.869 30.9397L781.012 27.8485C781.098 28.5569 781.269 29.5014 781.892 29.8663C785.434 31.9701 798.014 37.5086 800.139 39.8485C814.2 55.3905 823.087 69.7304 825.105 91.5408C827.509 117.451 824.804 135.204 811.173 157.766C798.271 179.126 777.599 189.666 753.556 196.9C665.262 198.553 662.042 81.6016 721.141 37.9808C727.86 33.022 754.693 21.2796 762.314 22.3315C764.439 22.632 765.191 24.7357 766.93 25.3154C769.012 26.0023 774.486 26.1097 775.538 26.8825H775.559ZM782.987 59.1257C781.785 57.3225 765.706 48.9933 763.173 48.3923C756.389 46.7393 747.931 52.6427 742.951 57.1078C729.878 68.8717 728.869 79.0256 724.039 94.4388C721.785 101.63 722.815 98.7536 722.214 106.546C721.828 111.741 719.724 117.065 719.209 121.788C718.736 126.017 719.96 146.882 721.141 150.36C721.913 152.679 723.695 153.623 724.103 154.954C724.726 157.058 723.867 159.376 724.876 161.695C726.786 166.117 741.255 173.673 746.257 173.566C749.176 173.501 758.472 169.637 761.155 167.963C776.268 158.603 783.201 133.487 786.593 117.28C789.534 103.197 791.917 88.1705 788.225 73.7233C787.838 72.1777 783.438 59.7483 783.008 59.1043L782.987 59.1257Z" fill="#EBAC3D"/>
<path d="M1186.97 418.33C1172.33 441.279 1161.58 451.411 1135.95 461.994C1135.13 462.338 1135.09 463.991 1134.4 464.076C1132.77 464.27 1129.7 462.81 1127.06 462.853C1123.6 462.939 1121.67 464.763 1118.52 465.128C1086.96 468.971 1059.14 449.415 1045.49 422.259C1042.05 415.411 1042.76 411.289 1040.98 406.459C1039.6 402.681 1032.15 394.18 1029.58 389.887C1027.78 386.86 1026.49 381.3 1025.07 379.368C1023.8 377.629 1020.03 377.543 1021.46 373.508C1023.5 367.776 1042.52 378.316 1047.89 373.1C1076.25 359.082 1102.29 340.835 1129.36 324.799C1131.85 323.318 1135.05 322.975 1137.6 321.236C1145.33 315.976 1144.49 303.375 1147.24 295.475C1147.62 294.381 1148.98 290.753 1150.63 291.397C1154.56 292.921 1168.51 320.506 1171.78 326.023C1191.18 358.867 1211.12 380.399 1186.97 418.266V418.33ZM1155.18 416.549C1157.39 414.295 1170.85 392.334 1171.52 389.458C1173.19 382.331 1173.86 368.699 1171.52 361.722C1171 360.177 1165.36 351.826 1164.41 351.611C1153.59 351.075 1148.18 356.313 1139.68 360.864C1121.09 370.803 1103.98 381.236 1086.1 391.991C1077.6 397.1 1068.26 401.114 1060.08 406.803C1059.29 409.271 1069.55 425.887 1072.34 427.626C1073.48 428.334 1082.64 432.005 1084.49 432.628C1105.34 439.647 1130.28 432.091 1147.65 420.284C1149.36 419.103 1154.62 417.107 1155.18 416.549Z" fill="#EBAC3D"/>
<path d="M278.462 213.904C281.253 217.467 291.321 227.514 294.884 230.176C305.768 238.29 327.471 245.052 338.849 235.328C339.75 234.555 340.63 232.58 341.833 231.356C343.829 229.295 347.113 229.145 346.598 225.753C346.405 224.465 340.244 212.659 339.02 210.705C337.088 207.592 325.947 194.498 323.328 192.866C322.233 192.179 315.278 189.818 313.904 189.689C308.666 189.217 297.718 193.574 296.323 186.447L336.101 159.185C340.738 157.489 343.915 152.766 349.303 153.109C350.162 153.26 350.999 168.115 351.471 170.369C354.155 183.206 365.339 198.877 373.561 209.138C377.231 213.732 382.405 214.29 380.988 222.233C380.731 223.628 376.587 230.97 375.514 232.88C373.732 235.993 372.917 236.637 370.77 240.995C366.541 249.56 347.757 262.634 338.72 265.768C336.852 266.412 332.044 266.712 331.808 266.97C331.357 267.399 332.237 269.331 331.013 270.061C328.394 271.585 317.596 271.263 314.011 271.07C282.112 269.396 243.836 245.095 233.768 214.054C230.269 203.235 225.482 179.642 227.951 168.995C233.425 145.317 244.008 124.795 267.321 115.091C273.138 112.666 285.825 111.227 289.818 108.63C293.532 106.226 295.013 100.344 297.353 96.8231C297.976 95.9 299.736 95.6854 300.251 94.9555C302.033 92.4224 301.196 87.3777 305.918 86.6907L327.192 139.8C326.419 144.351 310.62 136.816 307.421 136.129C293.317 133.167 277.346 133.875 266.355 144.158C258.799 151.22 258.82 166.054 260.301 175.735C262.019 187.091 271.292 204.802 278.419 213.904H278.462Z" fill="#EBAC3D"/>
<path d="M1032.85 162.084C1038.28 168.459 1041.99 174.105 1048.76 179.987C1051.91 182.735 1055.2 185.461 1059.04 187.05C1059.62 197.697 1055.65 207.894 1053.87 218.284C1049.14 245.912 1044.53 273.497 1039.65 301.103C1042.17 303.55 1052.94 292.538 1055.24 290.456C1067.8 279.057 1076.28 270.878 1086.15 256.452C1088.51 252.996 1091.95 253.06 1093 246.728C1093.75 242.262 1090.79 227.407 1095.02 226.141C1098.37 225.153 1107.62 237.733 1110.39 240.567C1114.12 244.409 1118.07 249.024 1121.55 252.502C1125.33 256.28 1138.83 263.343 1133.55 269.01C1130.4 272.402 1127.56 269.139 1123.87 268.946C1110.6 268.28 1107.79 270.47 1097.68 278.177C1087.53 285.905 1078.72 296.402 1067.97 303.701L1008.03 360.073C997.966 347.751 1006.3 327.872 1008.42 313.318C1010.55 298.785 1012.03 284.144 1014.04 269.633C1015.96 255.915 1020.06 242.134 1018.79 228.202C1017.61 226.635 1017.5 227.601 1016.32 227.923C1011.43 229.318 1007.86 235.951 1004.32 239.515C989.916 253.94 961.665 276.631 962.46 298.441C962.524 300.438 965.229 307.93 961.901 308.638C958.896 309.261 932.513 282.491 925.966 281.268C927.791 272.638 936.077 274.806 942.281 272.08C946.209 270.341 947.132 266.692 948.785 264.974C953.701 259.865 963.125 252.567 969.393 246.448C983.733 232.431 998.181 217.726 1012.22 202.398C1017.84 196.259 1026.84 186.856 1026.73 178.398C1026.71 176.209 1024.13 172.86 1023.73 169.747C1022.37 159.465 1023.55 151.178 1032.91 162.148L1032.85 162.084Z" fill="#EBAC3D"/>
<path d="M921.451 88.6447C920.528 90.2332 913.358 91.9291 911.448 93.0884C896.807 102.019 894.553 118.398 888.285 133.189C880.621 151.285 872.399 168.029 863.791 186.126C861.194 191.579 856.492 200.38 859.176 206.477C861.43 211.607 867.956 217.124 873.022 219.443C882.381 223.757 892.557 224.122 902.002 219.807C914.56 214.076 921.494 192.351 927.848 180.244C934.825 167.02 942.016 153.539 948.736 139.994C951.355 134.713 956.378 132.716 954.854 124.774C954.188 121.296 949.873 113.375 948.907 109.274C948.242 106.398 948.414 103.521 948.456 100.623C950.474 98.5195 972.779 115.65 976.084 117.496C982.181 120.888 993.451 122.906 996.671 128.23C997.229 129.131 997.916 129.99 997.809 131.149C991.519 133.511 980.292 136.409 975.376 140.917C973.337 142.784 963.462 160.151 961.122 164.187C956.893 171.421 953.458 179.45 949.337 186.727C935.576 211.092 927.569 221.503 921.881 250.419C921.344 253.103 921.172 268.795 918.961 268.902L886.482 252.609C882.918 246.748 894.897 245.997 893.737 239.986C889.015 241.103 884.099 240.609 879.333 241.146C876.414 241.468 874.202 243.335 870.725 243.249C864.843 243.099 851.748 239.45 847.068 235.714C841.594 231.335 829.637 216.18 827.92 209.825C824.356 196.709 827.748 196.065 830.753 185.31C835.068 169.875 839.448 161.976 845.544 147.571C852.113 132.029 865.036 110.498 870.66 92.0579C875.297 76.8379 869.179 75.829 867.226 64.4515C866.56 60.5231 866.431 58.3549 870.875 59.6859C876.328 61.3173 880.385 64.7306 885.172 66.8558C889.959 68.981 893.845 70.2261 898.718 72.6089C903.118 74.7556 917.952 81.1098 920.549 84.0078C921.666 85.2529 922.245 87.2279 921.408 88.6662L921.451 88.6447Z" fill="#EBAC3D"/>
<path d="M435.773 33.1064C436.803 34.051 431.501 49.7862 431.458 53.0062C431.307 61.3998 444.832 75.7183 449.726 82.9741C461.361 100.255 473.061 117.407 485.125 134.43C489.633 140.806 493.712 149.693 499.078 155.554C502.47 159.267 506.549 162.788 510.198 166.738C512.281 168.992 524.302 179.382 521.619 182.13C504.595 181.829 487.744 188.956 472.266 195.589C468.209 196.362 465.976 193.078 466.921 189.278C467.114 188.484 468.982 188.634 469.111 187.861C470.399 180.004 464.517 162.101 460.545 155.017C459.622 153.364 455.629 153.085 457.282 147.826C455.136 148.019 452.56 147.418 450.52 147.868C449.726 148.04 449.705 149.607 448.953 149.908C438.821 153.922 428.366 157.657 417.59 159.632C419.286 165.836 418.019 172.362 418.685 178.373C419.2 183.01 420.66 192.198 422.098 196.448C422.227 196.813 426.971 201.708 427.293 201.922C430.663 204.133 436.867 203.854 436.91 210.015L392.388 226.888L389.726 223.411C391.701 209.221 395.393 196.019 395.071 181.636C394.985 177.622 392.281 176.591 396.23 173.071C392.066 167.103 394.685 161.564 395.114 154.759C395.715 145.378 395.264 135.547 395.157 125.843C395.007 111.396 395.2 76.0832 387.408 64.8989C384.574 60.8417 379.851 57.4928 374.764 57.7075L374.635 49.9151C378.284 46.2657 384.488 48.5841 387.923 48.0689C391.808 47.4893 398.034 45.9007 401.919 44.8059C406.964 43.3677 433.647 31.153 435.815 33.1279L435.773 33.1064ZM422.227 102.38C420.016 99.3318 419.179 93.5358 414.306 93.1279C413.039 103.969 415.443 114.337 416.195 124.749C416.431 127.99 414.327 140.441 417.998 142.051C421.669 143.661 443.329 137.629 444.295 133.25C444.166 130.931 441.547 130.695 440.195 128.87C434.205 120.863 428.538 111.031 422.205 102.38H422.227Z" fill="#EBAC3D"/>
<path d="M80.0274 314.647L91.7269 328.665L95.3977 330.361C110.188 350.454 128.414 367.241 146.36 384.737C161.537 399.527 176.113 415.005 193.179 427.778C190.861 435.935 186.675 443.363 185.688 452.143C180.621 453.345 175.061 451.37 170.382 451.305C120.02 450.576 68.2421 441.237 17.9022 443.663C12.1276 443.942 7.06139 447.613 1.20092 444.114C-2.04058 437.352 3.88429 434.153 6.67499 429.237C15.6052 413.524 19.4263 395.921 26.5104 379.391L35.9558 401.545C43.1258 407.491 47.9773 410.261 57.6589 410.518C62.4889 410.647 66.8682 410.969 72.6213 411.527C98.5104 414.06 124.314 417.602 150.396 416.872C154.045 413.202 137.172 401.889 134.832 399.677C119.505 385.209 104.242 370.998 89.3655 357.216C86.5963 354.661 84.0202 350.411 81.0363 348.415C77.4943 346.053 66.031 342.661 61.9308 342.94C58.6893 343.155 34.6678 356.271 38.2957 345.109C39.7984 340.493 46.4317 332.787 48.8789 327.742C50.5533 324.286 53.7948 316.472 54.4603 312.93C55.4263 307.627 53.2367 282.812 60.836 282.833C62.1025 282.833 62.7895 283.563 63.5408 284.443C66.0524 287.363 70.0882 299.148 72.9433 303.978C75.0256 307.52 78.675 310.203 80.0059 314.626L80.0274 314.647Z" fill="#EBAC3D"/>
<path d="M293.781 294.275C287.405 301.187 278.776 307.756 272.164 315.012C268.45 319.069 265.874 323.191 263.062 327.119C261.881 328.772 258.94 330.318 258.232 333.259L255.548 332.486C252.822 326.604 252.006 317.438 248.722 312.178C245.266 306.64 229.96 297.195 223.391 300.586C221.201 301.724 213.666 312.028 211.563 314.497C210.811 315.377 209.588 315.699 208.708 316.407C203.212 327.334 192.865 328.622 201.516 341.695C203.47 344.636 215.405 357.238 218.067 358.461C220.858 359.749 235.305 354.232 235.241 360.586C235.241 361.917 220.321 378.297 218.196 381.13C215.835 384.286 213.43 387.957 211.133 391.22C209.137 394.053 209.717 398.647 203.641 398.626C200.7 397.81 199.284 383.856 198.446 381.216C189.645 353.309 174.919 328.708 160.493 303.356C154.89 293.502 148.429 280.064 142.268 271.198C141.516 270.125 135.892 263.277 135.42 263.041C131.405 261.066 113.073 265.531 115.155 257.932C123.248 248.229 130.761 237.688 139.155 228.2C141.516 225.538 144.844 223.542 146.84 221.416C148.471 219.678 153.387 210.382 156.307 211.069C160.45 214.504 157.681 218.561 157.96 222.189C158.303 226.74 162.318 232.107 166.117 234.49C177.194 241.445 192.5 246.297 204.285 252.071C223.67 261.56 243.098 271.048 262.31 280.923C264.522 282.06 267.613 285.409 269.158 285.86C275.491 287.685 289.917 284.186 295.198 286.633C296.142 287.084 297.473 288.501 297.259 289.66C295.928 291.034 295.026 292.901 293.759 294.275H293.781ZM201.495 296.379C202.74 293.975 205.638 289.788 202.997 287.685L164.378 268.944C164.099 269.223 165.409 273.538 165.795 274.483C168.629 281.545 173.931 290.647 177.538 297.109L186.94 315.012C188.593 315.42 188.658 314.755 189.538 313.874C192.887 310.568 199.412 300.415 201.516 296.357L201.495 296.379Z" fill="#EBAC3D"/>
</g>
<defs>
<clipPath id="clip0_2006_21742">
<rect width="1200" height="465.287" fill="white"/>
</clipPath>
</defs>
</svg>
